/* XPM */
static char *result[] = {
/* columns rows colors chars-per-pixel */
"32 32 5 1 ",
"  c #40264D",
". c #644574",
"X c white",
"o c #563767",
"O c black",
/* pixels */
"                                ",
"   ..........XX..XX..........   ",
"  .oooooooooXOOXXOOXooooooooo.  ",
" .ooooooooooXOXOOXOXoooooooooo. ",
" .oooooooXXXOOXXXXOOXXXooooooo. ",
" .ooooooXOOOOXXXXXXOOOOXoooooo. ",
" .ooooooXOXXXOXOOXOXXXOXoooooo. ",
" .oooooXOOOXXOOXXOOXXOOOXooooo. ",
" .oooooXOXXXOXXXXXXOXXXOXooooo. ",
" .ooooXXOOXXOXXXXXXOXXOOXXoooo. ",
" .ooXXOOOOOXXOXXXXOXXOOOOOXXoo. ",
" .oXOOOOOOXOOOXOOXOOOXOOOOOOXo. ",
" .oXOOOOXXXXOOOXXOOOXXXXOOOOXo. ",
" .XOOOOXXXXXXXOXXOXXXXXXXOOOOX. ",
" .XOOOOOXXOXOXXXXXXOXOXXOOOOOX. ",
" .XOOOOOOXOOOOXOOXOOOOXOOOOOOX. ",
" .XOOOOOOXOOOOOOOOOOOOXOOOOOOX. ",
" XOOOOOOXXXOOOOOOOOOOXXXOOOOOOX ",
" XOOOOOOOXXXOOOOOOOOXXXOOOOOOOX ",
" XOOOOOOOOOXOXOOOOXOXOOOOOOOOOX ",
" XOOXXXOOOOXXXXXXXXXXOOOOXXXOOX ",
" XOXXXXXOOOOXXOOOOXXOOOOXXXXXOX ",
" XOXOXXXOOOOOXXOOXXOOOOOXXXOXOX ",
" XOXXOXXXOOOOOOOOOOOOOOXXXOXXOX ",
" XOXXXOOOOOOOOOOOOOOOOOOOOXXXOX ",
" .XOXXXOOOOOOOOOOOOOOOOOOXXXOX. ",
" .oXOOOOOOOOOOOOOOOOOOOOOOOOXo. ",
" .oXOOXOOOXOOOOOOOOOOXOOOXOOXo. ",
" ..XOXXXOXXXOOOOOOOOXXXOXXXOXo. ",
"  .XOXOOXOOXOOXXXXOOXOOXOOXOX.  ",
"   .XOOOOOOOXX....XXOOOOOOOX.   ",
"     XXXXXXX        XXXXXXX     "
};
