/* XPM */
static char *result[] = {
/* columns rows colors chars-per-pixel */
"32 32 5 1 ",
"  c #40264D",
". c #644574",
"X c white",
"o c #563767",
"O c black",
/* pixels */
"                                ",
"   ..........XX..XX..........   ",
"  .oooooooooXOOXXOOXooooooooo.  ",
" .ooooooooooXOXOOXOXoooooooooo. ",
" .oooooooXXXOOXXXXOOXXXooooooo. ",
" .ooooooXOOOOXXXXXXOOOOXoooooo. ",
" .ooooooXOXXXOXOOXOXXXOXoooooo. ",
" .oooooXOOOXXOOXXOOXXOOOXooooo. ",
" .oooooXOXXXOXXXXXXOXXXOXooooo. ",
" .oooXXOOOXXOXXXXXXOXXOOOXXooo. ",
" .ooXOOOOOOXXOXXXXOXXOOOOOOXoo. ",
" .oXOOOOOOXOOOXOOXOOOXOOOOOOXo. ",
" .XOOOOOXXXXOOOXXOOOXXXXOOOOOX. ",
" .XOOOOXXXXXXXOXXOXXXXXXXOOOOX. ",
" XOOOOOOXXOXOXXXXXXOXOXXOOOOOOX ",
" XOOOOOOOXOOOOXOOXOOOOXOOOOOOOX ",
"XOOOOOOOXXXOOOOOOOOOOXXXOOOOOOOX",
"XOOOOOOOOXXXOXOOOOXOXXXOOOOOOOOX",
"XOOOOOOOOOOXXXXXXXXXXOOOOOOOOOOX",
"XOOOOOOOOOOXXXOOOOXXXOOOOOOOOOOX",
"XOOXXXOOOOOOXXXOOXXXOOOOOOXXXOOX",
"XOXXXXXOOOOOOOOOOOOOOOOOOXXXXXOX",
"XOXOXXXOOOOOOOOOOOOOOOOOOXXXOXOX",
"XOXXOXXXOOOOOOOOOOOOOOOOXXXOXXOX",
"XOXXXOOOOOOOOOOOOOOOOOOOOOOXXXOX",
" XOXXXOOOOOOOOOOOOOOOOOOOOXXXOX ",
" .XOOOOOOOOOOOOOOOOOOOOOOOOOOX. ",
" .oXOOXOOOXOOOOOOOOOOXOOOXOOXo. ",
" ..XOXXXOXXXOOOOOOOOXXXOXXXOXo. ",
"  .XOXOOXOOXOOXXXXOOXOOXOOXOX.  ",
"   .XOOOOOOOXX....XXOOOOOOOX.   ",
"     XXXXXXX        XXXXXXX     "
};
