/* XPM */
static char *result[] = {
/* columns rows colors chars-per-pixel */
"32 32 5 1 ",
"  c #40264D",
". c #644574",
"X c #563767",
"o c white",
"O c black",
/* pixels */
"                                ",
"   ..........................   ",
"  .XXXXXXXXXXooXXooXXXXXXXXXX.  ",
" .XXXXXXXXXXoOOooOOoXXXXXXXXXX. ",
" .XXXXXXXXXXoOoOOoOoXXXXXXXXXX. ",
" .XXXXXXXoooOOooooOOoooXXXXXXX. ",
" .XXXXXXoOOOOooooooOOOOoXXXXXX. ",
" .XXXXXXoOoooOoOOoOoooOoXXXXXX. ",
" .XXXXXoOOOooOOooOOooOOOoXXXXX. ",
" .XXXXXoOoooOooooooOoooOoXXXXX. ",
" .XXXXXXoOooOooooooOooOoXXXXXX. ",
" .XXXoooOOOoOOooooOOoOOOoooXXX. ",
" .XXoOOOOooOOOoOOoOOOooOOOOoXX. ",
" .XoOOOOooOOOOOooOOOOOooOOOOoX. ",
" .XoOOOoooooOOOooOOOoooooOOOoX. ",
" .XoOOOooOooooOooOooooOooOOOoX. ",
" .XoOOOOoOOoOooooooOoOOoOOOOoX. ",
" .XoOOOOooOOOOoOOoOOOOooOOOOoX. ",
" .oOOOOOOoOOOOOOOOOOOOoOOOOOOo. ",
" .oOOOOOOoOOOOOOOOOOOOoOOOOOOo. ",
" .oOOOOOoooOOOOOOOOOOoooOOOOOo. ",
" .oOOoooOooOOOOOOOOOOooOoooOOo. ",
" .oOoooooOooOoOOOOoOooOoooooOo. ",
" .oOoOOoooOooooooooooOoooOOoOo. ",
" .oOoooOOOOooooOOooooOOOOoooOo. ",
" .XoOoooOOOOooOOOOooOOOOoooOoX. ",
" .XoOOOOOOOOOOOOOOOOOOOOOOOOoX. ",
" .XoOOOOOOOOOOOOOOOOOOOOOOOOoX. ",
" ..oOOOOOOOOOOOOOOOOOOOOOOOOoX. ",
"  .oOoOOoOOoOOOOOOOOoOOoOOoOo.  ",
"   .oOOOOOOOooooooooOOOOOOOo.   ",
"     ooooooo        ooooooo     "
};
