/* XPM */
static char *result[] = {
/* columns rows colors chars-per-pixel */
"32 32 5 1 ",
"  c #40264D",
". c #644574",
"X c #563767",
"o c white",
"O c black",
/* pixels */
"                                ",
"   ..........................   ",
"  .XXXXXXXXXXXXXXXXXXXXXXXXXX.  ",
" .XXXXXXXXXXXXXXXXXXXXXXXXXXXX. ",
" .XXXXXXXXXXXXXXXXXXXXXXXXXXXX. ",
" .XXXXXXXXXXXooXXooXXXXXXXXXXX. ",
" .XXXXXXXXXXoOOooOOoXXXXXXXXXX. ",
" .XXXXXXXooooOoOOoOooooXXXXXXX. ",
" .XXXXXXoOOOOOooooOOOOOoXXXXXX. ",
" .XXXXXXoOooOooooooOooOoXXXXXX. ",
" .XXXXooOOOooOoOOoOooOOOooXXXX. ",
" .XXXoOOOooooOOooOOooooOOOoXXX. ",
" .XXoOOOOOoooOooooOoooOOOOOoXX. ",
" .XoOOOOOOOoooOooOoooOOOOOOOoX. ",
" .XoOOOOOOOoOOOooOOOoOOOOOOOoX. ",
" .oOOOOOOOoooOOooOOoooOOOOOOOo. ",
" .oOOOOOOooooooOOooooooOOOOOOo. ",
" .oOOOOOOooOoOooooOoOooOOOOOOo. ",
" oOOOOOOOOooOOOOOOOOooOOOOOOOOo ",
" oOOOOOOOOOOoOoOOoOoOOOOOOOOOOo ",
" oOOoooOOOOOooooooooOOOOOoooOOo ",
" oOoooooOOOOOooOOooOOOOOoooooOo ",
" oOoOoooOOOOOOOOOOOOOOOOoooOoOo ",
" oOooOoooOOOOOOOOOOOOOOoooOooOo ",
" oOoooOOOOOOOOOOOOOOOOOOOOoooOo ",
" .oOoooOOOOOOOOOOOOOOOOOOoooOo. ",
" .XoOOOOOOOOOOOOOOOOOOOOOOOOoX. ",
" .XoOOOOOOOOOOOOOOOOOOOOOOOOoX. ",
" ..oOOooOooOOOOOOOOOOooOooOOoX. ",
"  .oOoOOoOOoOOooooOOoOOoOOoOo.  ",
"   .oOOOOOOOoo....ooOOOOOOOo.   ",
"     ooooooo        ooooooo     "
};
