/* XPM */
static char *result[] = {
/* columns rows colors chars-per-pixel */
"32 32 11 1 ",
"  c black",
". c #222222",
"X c #323234",
"o c #400000",
"O c #5C0000",
"+ c #444444",
"@ c #545456",
"# c #646466",
"$ c #AD0000",
"% c red",
"& c None",
/* pixels */
"&&&&&&&&&&&&&&&&&&&&&&&&&&&&&&&&",
"&&&&&&&&&&&&&.....&&&&&&&&&&&&&&",
"&&&&&&&&&&&..XXXXX..&&&&&&&&&&&&",
"&&&&&&&&&&.XX+++++XX.&&&&&&&&&&&",
"&&&&&&&&&.X+++@@@+++X.&&&&&&&&&&",
"&&&&&&&&.X++@@###@@++X.&&&&&&&&&",
"&&&&&&&.X++@@#####@@++X.&&&&&&&&",
"&&&&&&&.X+@@@+++++@@@+X.&&&&&&&&",
"&&&&&&.X+@+++XXXXX+++@+X.&&&&&&&",
"&&&&&&.+++XX.......XX+++.&&&&&&&",
"&&&&&.X+XX.         .XX+X.&&&&&&",
"&&&&&.+XX.OOOo   oOOO.XX+.&&&&&&",
"&&&&.XXX.O$%$OoooO$%$O.XXX.&&&&&",
"&&&&.XXX O$%%$ooo$%%$O XXX.&&&&&",
"&&&XX+X. oO$$OoooO$$Oo .X+XX&&&&",
"&&&X+XX.  oOOoo ooOOo  .XX+X&&&&",
"&&X++X...  ooo   ooo  ...X++X&&&",
"&&++++.X..           ..X.++++&&&",
"&X+X++XXX...       ...XXX++X+X&&",
"&+X+@+XXX.XX.......XX.XXX+@+X+&&",
"&&+@@+X+XXXXX.XXX.XXXXX+X+@@+&&&",
"&&+@@+++XXXX+XXXXX+XXXX+++@@+&&&",
"&&@+@++@+X+X++XXX++X+X+@++@+@&&&",
"&&@&@+@@++++@+++++@++++@@+@&@&&&",
"&&&&@@@@@+@+@@+++@@+@+@@@@@&&&&&",
"&&&&@@@@@+@@@@@+@@@@@+@@@@@&&&&&",
"&&&&&@@&@@@@@@@@@@@@@@@&@@&&&&&&",
"&&&&&@&&@@@@@@@@@@@@@@@&&@&&&&&&",
"&&&&&&&&&@@&@@@@@@@&@@&&&&&&&&&&",
"&&&&&&&&&&@&&@@@@@&&@&&&&&&&&&&&",
"&&&&&&&&&&&&&&@@@&&&&&&&&&&&&&&&",
"&&&&&&&&&&&&&&&&&&&&&&&&&&&&&&&&"
};
