/* XPM */
static char *result[] = {
/* columns rows colors chars-per-pixel */
"32 32 11 1 ",
"  c black",
". c #222222",
"X c #323234",
"o c #400000",
"O c #5C0000",
"+ c #444444",
"@ c #545456",
"# c #646466",
"$ c #AD0000",
"% c red",
"& c None",
/* pixels */
"&&&&&&&&&&&&&&&&&&&&&&&&&&&&&&&&",
"&&&&&&&&&&.....&&&&&&&&&&&&&&&&&",
"&&&&&&&&..XXXXX..&&&&&&&&&&&&&&&",
"&&&&&&&.XX+++++XX.&&&&&&&&&&&&&&",
"&&&&&&.X+++@@@+++X.&&&&&&&&&&&&&",
"&&&&&.X++@@###@@++X.&&&&&&&&&&&&",
"&&&&&X++@@#####@@++X.&&&&&&&&&&&",
"&&&&.X+@@@@@@@@@@@+X.&&&&&&&&&&&",
"&&&&.XXXXX++@@@@++@+X.&&&&&&&&&&",
"&&&.XXXX..XX+@+@@++++.&&&&&&&&&&",
"&&&       .XX++++@+++X.&&&&&&&&&",
"&&&o  oOOO .XXXX+++X+XX.&&&&&&&&",
"&&&oooO$%$O .XX.XX+XXXXX&&&&&&&&",
"&&&ooo$%%$O ..X..XX.XX.X.&&&&&&&",
"&&&oooO$$Oo  .....X....XX&&&&&&&",
"&&&o ooOOo   .........XXX.&&&&&&",
"&&&   ooo    .....X.X.XXXX&&&&&&",
"&&&.        ....X.XXXXX+XX&&&&&&",
"&&&...    ....X..XXXXXX++X.&&&&&",
"&&&........X..XX.XXXX+X+++X&&&&&",
"&&&&XX..X.XXX.XXXXXXX++++++&&&&&",
"&&&&+XXXXX+XXXXX+XX+X+++@+@+&&&&",
"&&&&++XX+X+++XX+++X+++++@@@@&&&&",
"&&&&&+++++@++++++++++@++@@&@&&&&",
"&&&&&@@+++@@+++@++@++@@@@@&&&&&&",
"&&&&&@@@+@@@@++@@+@@+@@@@&&&&&&&",
"&&&&&&@@@@@@@@+@@@@@@@&@@&&&&&&&",
"&&&&&&@@@@@@@@@@@@@@@@&&&&&&&&&&",
"&&&&&&&@@@@@@@@@@@&@@&&&&&&&&&&&",
"&&&&&&&&@&@@@@@&@@&&&&&&&&&&&&&&",
"&&&&&&&&&&&@@@&&&&&&&&&&&&&&&&&&",
"&&&&&&&&&&&&&&&&&&&&&&&&&&&&&&&&"
};
