/* XPM */
static char *result[] = {
/* columns rows colors chars-per-pixel */
"32 32 97 2 ",
"   c #40264D",
".  c #644574",
"X  c #563767",
"o  c #5E3E5D",
"O  c #8C6A21",
"+  c #704F46",
"@  c #7A5938",
"#  c #826036",
"$  c #B58E26",
"%  c #B6912B",
"&  c #B89433",
"*  c #836138",
"=  c #684850",
"-  c #93702B",
";  c #A5801D",
":  c #AB8520",
">  c #CDA332",
",  c #CFA639",
"<  c #D1AB43",
"1  c #AE8A2C",
"2  c #A88528",
"3  c #967333",
"4  c #957215",
"5  c #BD952A",
"6  c #D5B151",
"7  c #D6B356",
"8  c #C3A043",
"9  c #C59C2E",
"0  c #D2AC45",
"q  c #BC9429",
"w  c #A8831F",
"e  c #BF9831",
"r  c #C19D3B",
"t  c #A98422",
"y  c #C09C3A",
"u  c #D3AE4A",
"i  c #D0A83C",
"p  c #B28B24",
"a  c #CEA638",
"s  c #D0A940",
"d  c #B59233",
"f  c #B69336",
"g  c #C09C3B",
"h  c #D4AF4C",
"j  c #B69234",
"k  c #AB8729",
"l  c #CAA542",
"z  c #D5B253",
"x  c #AF8C30",
"c  c #83633A",
"v  c #D2AC47",
"b  c #D0A93E",
"n  c #D9B860",
"m  c #BE9D48",
"M  c #D3AD48",
"N  c #DBBD6B",
"B  c #BFA04E",
"V  c #DDC173",
"C  c #C0A253",
"Z  c #DFC47C",
"A  c #C2A559",
"S  c #D2AD48",
"D  c #C4A145",
"F  c #D6B254",
"G  c #E1C680",
"H  c #C3A75C",
"J  c #D4B04D",
"K  c #C6A54C",
"L  c #E0C57D",
"P  c #D6B355",
"I  c #B79539",
"U  c #AB882A",
"Y  c #D8B75F",
"T  c #B08F37",
"R  c #84643D",
"E  c #CEA536",
"W  c #BD9A3A",
"Q  c #B89331",
"!  c #BE9933",
"~  c #DBBC69",
"^  c #A9872D",
"/  c #BE972F",
"(  c #B28D28",
")  c #C29B32",
"_  c #D1AA41",
"`  c #D3AE48",
"'  c #C8A855",
"]  c #967538",
"[  c #C8A138",
"{  c #D9B962",
"}  c #CEA535",
"|  c #CAAD5D",
" . c #D7B65B",
".. c #AE8C2F",
"X. c #97773A",
"o. c #BC9B41",
"O. c #83623A",
/* pixels */
"                                                                ",
"      . . . . . . . . . . . . . . . . . . . . . . . . . .       ",
"    . X X X X X X X X X X X X X X X X X X X X X X X X X X .     ",
"  . X X X X X X X X X X X X X X X X X X X X X X X X X X X X .   ",
"  . X X X X X X X X X X X X X X X X X X X X X X X X X X X X .   ",
"  . X X X X X X X X X X o O O O O O O o X X X X X X X X X X .   ",
"  . X X X X X X X X + @ # $ $ $ % & & * @ + X X X X X X X X .   ",
"  . X X X X X X X = - ; : > > > , < < 1 2 3 = X X X X X X X .   ",
"  . X X X X X X X 4 5 > > > > > > > > 6 7 8 4 X X X X X X X .   ",
"  . X X X X X = 4 > > > 9 4 4 4 4 4 4 9 , 0 7 4 = X X X X X .   ",
"  . X X X X + - 5 > > q w 5 5 5 e r r t y u i 8 3 + X X X X .   ",
"  . X X X X @ ; > > q p p > > > a s s d f g i 7 2 @ X X X X .   ",
"  . X X X o # : > 9 w p > > > > > > > h j k l z x c o X X X .   ",
"  . X X X O $ > > 4 5 > > > > > > > > > v 8 4 b n m O X X X .   ",
"  . X X X O $ > > 4 5 > > > > > > > > > v 8 4 M N B O X X X .   ",
"  . X X X O $ > > 4 5 > > > > > > > > > v 8 4 6 V C O X X X .   ",
"  . X X X O $ > > 4 5 > > > > > > > > > v 8 4 7 Z A O X X X .   ",
"  . X X X O $ > > 4 5 > > > > > > > > > S D 4 F G H O X X X .   ",
"  . X X X O $ > > 4 5 > > > > > > > > > J K 4 u L H O X X X .   ",
"  . X X X o # : > 9 w p > > > > > > > P I U l Y T R o X X X .   ",
"  . X X X X @ ; > > q p p > > > > E J W Q ! < ~ ^ @ X X X X .   ",
"  . X X X X + - 5 > > q w 5 5 5 5 / K ( ) _ ` ' ] + X X X X .   ",
"  . X X X X X = 4 > > > 9 4 4 4 4 4 4 [ b ` { 4 = X X X X X .   ",
"  . X X X X X X X 4 5 > > > > > > } u F N | 4 X X X X X X X .   ",
"  . X X X X X X X = - ; : > > > _ P  ...^ X.= X X X X X X X .   ",
"  . X X X X X X X X + @ # $ $ $ Q o.o.O.@ + X X X X X X X X .   ",
"  . X X X X X X X X X X o O O O O O O o X X X X X X X X X X .   ",
"  . X X X X X X X X X X X X X X X X X X X X X X X X X X X X .   ",
"  . . X X X X X X X X X X X X X X X X X X X X X X X X X X X .   ",
"    . . X X X X X X X X X X X X X X X X X X X X X X X X X .     ",
"      . . . . . . . . . . . . . . . . . . . . . . . . . .       ",
"                                                                "
};
