/* XPM */
static char *result[] = {
/* columns rows colors chars-per-pixel */
"32 32 170 2 ",
"   c #40264D",
".  c #644574",
"X  c #563767",
"o  c #6D4D49",
"O  c #8C6A21",
"+  c #5E3E5D",
"@  c #755346",
"#  c #987330",
"$  c #B6902A",
"%  c #BE9D48",
"&  c #BFA04E",
"*  c #A7862E",
"=  c #A48122",
"-  c #B99636",
";  c #83633A",
":  c #654553",
">  c #684850",
",  c #9A772F",
"<  c #BC9429",
"1  c #CFA638",
"2  c #D8B65D",
"3  c #DABA64",
"4  c #BF9F4A",
"5  c #B59338",
"6  c #C5A141",
"7  c #DABB67",
"8  c #B19039",
"9  c #846443",
"0  c #634356",
"q  c #957215",
"w  c #BF9932",
"e  c #CFA639",
"r  c #CDA332",
"t  c #D9B962",
"y  c #C1A456",
"u  c #9E7B1E",
"i  c #D6B356",
"p  c #DEC275",
"a  c #B59540",
"s  c #83612C",
"d  c #CFA73B",
"f  c #B7912C",
"g  c #977315",
"h  c #A27C17",
"j  c #B58E26",
"k  c #D7BD76",
"l  c #CAA542",
"z  c #DABB65",
"x  c #CAAD5D",
"c  c #BE9528",
"v  c #BA9226",
"b  c #BF9830",
"n  c #CBAB55",
"m  c #C39F3F",
"M  c #B18C2A",
"N  c #BB993B",
"B  c #D8B865",
"V  c #CEB46E",
"C  c #AC8A2F",
"Z  c #C4A44B",
"A  c #C7A751",
"S  c #82603A",
"D  c #AD8721",
"F  c #B0881F",
"G  c #B58E23",
"H  c #CEA537",
"J  c #D6B254",
"K  c #D8B75D",
"L  c #B29035",
"P  c #B18E31",
"I  c #D8B75F",
"U  c #E5CE92",
"Y  c #A07F27",
"T  c #BA9738",
"R  c #CBA94A",
"E  c #B29036",
"W  c #715044",
"Q  c #7A5938",
"!  c #A5801D",
"~  c #C59C2E",
"^  c #A8831F",
"/  c #B28B24",
"(  c #BA9B47",
")  c #B49238",
"_  c #D0AF57",
"`  c #E6D095",
"'  c #A17F27",
"]  c #D3AE49",
"[  c #D9BA64",
"{  c #BD952A",
"}  c #DCBF70",
"|  c #C4AA63",
" . c #A1812A",
".. c #EBD9AA",
"X. c #D3AF4C",
"o. c #DCBE6E",
"O. c #C1A558",
"+. c #9F7D23",
"@. c #DEC277",
"#. c #BE9E4A",
"$. c #DEC175",
"%. c #D4B04E",
"&. c #D2AD48",
"*. c #BA983B",
"=. c #A07E24",
"-. c #E0C67F",
";. c #D5B151",
":. c #D0A940",
">. c #B89433",
",. c #A07F26",
"<. c #E4CD8F",
"1. c #D5B253",
"2. c #E2CA88",
"3. c #A2822E",
"4. c #F1E4C2",
"5. c #D6B456",
"6. c #E1C781",
"7. c #BC9E4D",
"8. c #B08B28",
"9. c #CDAA4A",
"0. c #EEE0B8",
"q. c #A2822C",
"w. c #D7B559",
"e. c #E8D39C",
"r. c #CDA434",
"t. c #E3CB8B",
"y. c #B89B4D",
"u. c #DBBD6A",
"i. c #E9D5A1",
"p. c #A18029",
"a. c #B99534",
"s. c #CCA94D",
"d. c #B99C50",
"f. c #B08A23",
"g. c #AF8923",
"h. c #BE962C",
"j. c #C19D3B",
"k. c #CCB067",
"l. c #B99A48",
"z. c #C1A250",
"x. c #DEC47E",
"c. c #AC892C",
"v. c #C4A249",
"b. c #C6A650",
"n. c #BC9B41",
"m. c #DAC180",
"M. c #C8A138",
"N. c #D7B65B",
"B. c #C6AD6A",
"V. c #DBBC6B",
"C. c #B3933B",
"Z. c #93702B",
"A. c #B68F26",
"S. c #CEA536",
"D. c #D3AE4C",
"F. c #DABB66",
"G. c #C1A352",
"H. c #B6953E",
"J. c #C5A242",
"K. c #B19038",
"L. c #846341",
"P. c #704F46",
"I. c #937030",
"U. c #B68F29",
"Y. c #BA973A",
"T. c #BD9D46",
"R. c #A6852B",
"E. c #B99637",
"W. c #BFA14F",
"Q. c #84633B",
/* pixels */
"                                                                ",
"      . . . . . . . . . . . . . . . . . . . . . . . . . .       ",
"    . X X X X X X X X X X X X X X X X X X X X X X X X X X .     ",
"  . X X X X X X X X X X X X X X X X X X X X X X X X X X X X .   ",
"  . X X X X X X X X X X X X X X X X X X X X X X X X X X X X .   ",
"  . X X X X X X X X X o O O O O O O O + X X X X X X X X X X .   ",
"  . X X X X X X X X @ # $ % & * = - % ; : X X X X X X X X X .   ",
"  . X X X X X X X > , < 1 2 3 4 5 6 7 8 9 0 X X X X X X X X .   ",
"  . X X X X X X X q w e r r r t y u i p a s X X X X X X X X .   ",
"  . X X X X X > q r d f g h g j i k q l z x q X X X X X X X .   ",
"  . X X X X X > q r c v b n m M N B V C Z A q X X X X X X X .   ",
"  . X X X X : S D r F G H J K L P I U Y T R E W + X X X X X .   ",
"  . X X X X Q ! r ~ ^ / r r 7 ( ) _ ` ' f ] [ q > X X X X X .   ",
"  . X X X X Q ! r q { r r r r } |  ... .f X.o.q > X X X X X .   ",
"  . X X X X Q ! r q { r r r r [ O.+.@.+.f X.o.q > X X X X X .   ",
"  . X X X X Q ! r q { r r r r i #.+.$.+.f %.$.q > X X X X X .   ",
"  . X X X X Q ! r q { r r r r &.*.=.-.=.f ;.-.q > X X X X X .   ",
"  . X X X X Q ! r q { r r r r :.>.,.<.,.f 1.2.q > X X X X X .   ",
"  . X X X X Q ! r q { r r r r :.>.3.4.3.f 5.U q > X X X X X .   ",
"  . X X X X Q ! r ~ ^ / r r 6.7.8.9.0.q.f w.e.q > X X X X X .   ",
"  . X X X X : S D r ! D r.:.t.y.L u.i.p.a.s.d.W + X X X X X .   ",
"  . X X X X X > q r f.g.h.j.k.l.z.x.V c.v.b.q X X X X X X X .   ",
"  . X X X X X > q r r j q q q n.@.m.q M.o.V q X X X X X X X .   ",
"  . X X X X X X X q { r r r N.t.B.u i V.C.s X X X X X X X X .   ",
"  . X X X X X X X > Z.A.S.D.F.G.H.J.} K.L.0 X X X X X X X X .   ",
"  . X X X X X X X X P.I.U.Y.T.R.= E.W.Q.: X X X X X X X X X .   ",
"  . X X X X X X X X X o O O O O O O O + X X X X X X X X X X .   ",
"  . X X X X X X X X X X X X X X X X X X X X X X X X X X X X .   ",
"  . . X X X X X X X X X X X X X X X X X X X X X X X X X X X .   ",
"    . . X X X X X X X X X X X X X X X X X X X X X X X X X .     ",
"      . . . . . . . . . . . . . . . . . . . . . . . . . .       ",
"                                                                "
};
