/* XPM */
static char *result[] = {
/* columns rows colors chars-per-pixel */
"32 32 38 1 ",
"  c #40264D",
". c #644574",
"X c #563767",
"o c #957214",
"O c #927014",
"+ c #A07C1B",
"@ c #B68F26",
"# c #B99228",
"$ c #BA9635",
"% c #B69233",
"& c #926F11",
"* c #A88425",
"= c #A98320",
"- c #B18A23",
"; c #CDA332",
": c #CEA432",
"> c #D0A739",
", c #D2AB40",
"< c #AC892D",
"1 c #9F7C1D",
"2 c #C0982C",
"3 c #CCA231",
"4 c #C59C2E",
"5 c #D3AD48",
"6 c #D6B353",
"7 c #C6A243",
"8 c #9E7A1B",
"9 c #9C7819",
"0 c #CCA94C",
"q c #BD9529",
"w c #C39F3B",
"e c #A38228",
"r c #D8B65B",
"t c #BC9C43",
"y c #DBBC66",
"u c #C2A350",
"i c #E1C57A",
"p c #C6A95C",
/* pixels */
"                                ",
"   ..........................   ",
"  .XXXXXXXXXXXXXXXXXXXXXXXXXX.  ",
" .XXXXXXXXXXXXXXXXXXXXXXXXXXXX. ",
" .XXXXXXXXXXXXXXXXXXXXXXXXXXXX. ",
" .XXXXXXXXXXXooooooXXXXXXXXXXX. ",
" .XXXXXXXXXO+@@@#$%+&XXXXXXXXX. ",
" .XXXXXXXX*=-;::>,,%<*XXXXXXXX. ",
" .XXXXXXX12:34444445671XXXXXXX. ",
" .XXXXXX143;28999982>501XXXXXX. ",
" .XXXXX*23:#=qqq2ww=$5>7*XXXXX. ",
" .XXXXO=:;#-@;::>,,$%$,6<&XXXX. ",
" .XXXX+-32=@:;;;;;;5$<w5%eXXXX. ",
" .XXXo@;48q;;;;;;;;;578wrtoXXX. ",
" .XXXo@:49q:;;;;;;;;5787yuoXXX. ",
" .XXXo@:49q:;;;;;;;35780iuoXXX. ",
" .XXXo@:49q:;;;;;;;;5780ipoXXX. ",
" .XXXo@:49q:;;;;;;;;5780ipoXXX. ",
" .XXXo@;48q;;;;;;;;;5u80ipoXXX. ",
" .XXXX+-32=@:;;;;;36t<76teXXXX. ",
" .XXXXO=:;#-@;:::>5w%$5y<&XXXX. ",
" .XXXXX*23:#=qqqq27@2,50*XXXXX. ",
" .XXXXXX143;2899998w,501XXXXXX. ",
" .XXXXXXX12:34444475yp1XXXXXXX. ",
" .XXXXXXXX*=-;::,6r%<*XXXXXXXX. ",
" .XXXXXXXXXO+@@@%tte&XXXXXXXXX. ",
" .XXXXXXXXXXXooooooXXXXXXXXXXX. ",
" .XXXXXXXXXXXXXXXXXXXXXXXXXXXX. ",
" ..XXXXXXXXXXXXXXXXXXXXXXXXXXX. ",
"  ..XXXXXXXXXXXXXXXXXXXXXXXXX.  ",
"   ..........................   ",
"                                "
};
