/* XPM */
static char *result[] = {
/* columns rows colors chars-per-pixel */
"32 32 59 1 ",
"  c #40264D",
". c #644574",
"X c #563767",
"o c #75543F",
"O c #8C6A21",
"+ c #84622B",
"@ c #7A5938",
"# c #957215",
"$ c #654553",
"% c #8C6A36",
"& c #AA8830",
"* c #A38542",
"= c #684850",
"- c #583964",
"; c #B89433",
": c #DDC073",
"> c #DFCA95",
", c #5F3F5B",
"< c #E5CF93",
"1 c #EEE7D4",
"2 c #B7922E",
"3 c #E1C782",
"4 c #E9DCBD",
"5 c #B7932F",
"6 c #E0C57C",
"7 c #E5D6AF",
"8 c #B99534",
"9 c #E0C67E",
"0 c #E4D4A9",
"q c #BA973A",
"w c #E2C884",
"e c #BC9A40",
"r c #E1C781",
"t c #DFCC98",
"y c #B99535",
"u c #DCBF6F",
"i c #DCC589",
"p c #B69029",
"a c #D8B75F",
"s c #DAC180",
"d c #B68F29",
"f c #D8B65D",
"g c #D9C07F",
"h c #DBBC6B",
"j c #D7BD76",
"k c #D6B355",
"l c #D5B96D",
"z c #B58E26",
"x c #D4B04E",
"c c #D3B566",
"v c #B58F28",
"b c #D4B04F",
"n c #D3B564",
"m c #B7912C",
"M c #D6B558",
"N c #D4B86C",
"B c #D9BA64",
"V c #A9862B",
"C c #A18139",
/* pixels */
"                                ",
"   ..........................   ",
"  .XXXXXXXXXXXXXXXXXXXXXXXXXX.  ",
" .XXXXXXXXXXXXXXXXXXXXXXXXXXXX. ",
" .XXXXXXXXXXXXXXXXXXXXXXXXXXXX. ",
" .XXXXXXXXXXXXXoO+XXXXXXXXXXXX. ",
" .XXXXXXXXXXXXX@#OXXXXXXXXXXXX. ",
" .XXXXXXXXXXXX$%&*=-XXXXXXXXXX. ",
" .XXXXXXXXXXXXO;:>#,XXXXXXXXXX. ",
" .XXXXXXXXXXXXO;<1#,XXXXXXXXXX. ",
" .XXXXXXXXXXXXO234#,XXXXXXXXXX. ",
" .XXXXXXXXXXXXO567#,XXXXXXXXXX. ",
" .XXXXXXXXXXXXO890#,XXXXXXXXXX. ",
" .XXXXXXXXXXXXOqw0#,XXXXXXXXXX. ",
" .XXXXXXXXXXXXOert#,XXXXXXXXXX. ",
" .XXXXXXXXXXXXOyui#,XXXXXXXXXX. ",
" .XXXXXXXXXXXXOpas#,XXXXXXXXXX. ",
" .XXXXXXXXXXXXOdfg#,XXXXXXXXXX. ",
" .XXXXXXXXXXXXOqhj#,XXXXXXXXXX. ",
" .XXXXXXXXXXXXOdkl#,XXXXXXXXXX. ",
" .XXXXXXXXXXXXOzxc#,XXXXXXXXXX. ",
" .XXXXXXXXXXXXOvbn#,XXXXXXXXXX. ",
" .XXXXXXXXXXXXOmMN#,XXXXXXXXXX. ",
" .XXXXXXXXXXXXO;Bj#,XXXXXXXXXX. ",
" .XXXXXXXXXXXX$%VC=-XXXXXXXXXX. ",
" .XXXXXXXXXXXXX@#OXXXXXXXXXXXX. ",
" .XXXXXXXXXXXXXoO+XXXXXXXXXXXX. ",
" .XXXXXXXXXXXXXXXXXXXXXXXXXXXX. ",
" ..XXXXXXXXXXXXXXXXXXXXXXXXXXX. ",
"  ..XXXXXXXXXXXXXXXXXXXXXXXXX.  ",
"   ..........................   ",
"                                "
};
