/* XPM */
static char *result[] = {
/* columns rows colors chars-per-pixel */
"32 32 95 2 ",
"   c #40264D",
".  c #644574",
"X  c #563767",
"o  c #84622B",
"O  c #8C6A21",
"+  c #5E3E5D",
"@  c #5B3C60",
"#  c #7A5938",
"$  c #AC8728",
"%  c #A37E1C",
"&  c #A6852B",
"*  c #B89741",
"=  c #957215",
"-  c #5F3F5B",
";  c #715048",
":  c #A5801D",
">  c #BA9228",
",  c #AF8923",
"<  c #BB993B",
"1  c #D3B35E",
"2  c #AC8C39",
"3  c #72524C",
"4  c #715044",
"5  c #9D7919",
"6  c #CDA332",
"7  c #B58E26",
"8  c #D0A83C",
"9  c #D6B354",
"0  c #E5CE92",
"q  c #A07F27",
"w  c #A07E23",
"e  c #DFC47A",
"r  c #76553D",
"t  c #9B772C",
"y  c #C69D2E",
"u  c #9F7D22",
"i  c #DDC071",
"p  c #C9A951",
"a  c #9F7E3A",
"s  c #83612C",
"d  c #AD8721",
"f  c #C59C2E",
"g  c #BF972B",
"h  c #B59131",
"j  c #B69641",
"k  c #BE9D48",
"l  c #D6B763",
"z  c #B39138",
"x  c #B59642",
"c  c #D5BA6F",
"v  c #D3B566",
"b  c #B4943D",
"n  c #B7994B",
"m  c #DAC180",
"M  c #B99D53",
"N  c #DEC992",
"B  c #D7BD77",
"V  c #B69846",
"C  c #B99D52",
"Z  c #DDC88F",
"A  c #D7BD76",
"S  c #B69745",
"D  c #D8BF7A",
"F  c #B79848",
"G  c #B59540",
"H  c #D4B86C",
"J  c #DFCA95",
"K  c #BA9E55",
"L  c #B4933C",
"P  c #D2B463",
"I  c #C19B33",
"U  c #B69437",
"Y  c #B5943C",
"T  c #BC9B41",
"R  c #D7B865",
"E  c #B3923A",
"W  c #C9A138",
"Q  c #B99430",
"!  c #A27E20",
"~  c #D7B65B",
"^  c #C6A347",
"/  c #9F7C37",
"(  c #BB9226",
")  c #A9831E",
"_  c #D3AE4A",
"`  c #9E7B1D",
"'  c #D1AA41",
"]  c #D7B55B",
"[  c #B58D23",
"{  c #C19D3E",
"}  c #D3B460",
"|  c #AA8932",
" . c #72514B",
".. c #A7811D",
"X. c #AB882B",
/* pixels */
"                                                                ",
"      . . . . . . . . . . . . . . . . . . . . . . . . . .       ",
"    . X X X X X X X X X X X X X X X X X X X X X X X X X X .     ",
"  . X X X X X X X X X X X X X X X X X X X X X X X X X X X X .   ",
"  . X X X X X X X X X X X X X X X X X X X X X X X X X X X X .   ",
"  . X X X X X X X X X X X X o O O O O + X X X X X X X X X X .   ",
"  . X X X X X X X X X X @ # $ % & * = - X X X X X X X X X X .   ",
"  . X X X X X X X X X + ; : > , < 1 2 3 + X X X X X X X X X .   ",
"  . X X X X X X X X X 4 5 6 5 7 8 9 0 q 4 X X X X X X X X X .   ",
"  . X X X X X X X X X 4 5 6 5 7 7 w e w 4 X X X X X X X X X .   ",
"  . X X X X X X X X r t > : > y 7 u i p a r X X X X X X X X .   ",
"  . X X X X X X X X s d f = f g h j k l z s X X X X X X X X .   ",
"  . X X X X X X X X s d f = f d x c = v b s X X X X X X X X .   ",
"  . X X X X X X X X s d f = f d n m = m n s X X X X X X X X .   ",
"  . X X X X X X X X s d f = f d M N = B V s X X X X X X X X .   ",
"  . X X X X X X X X s d f = f d C Z = A S s X X X X X X X X .   ",
"  . X X X X X X X X s d f = f d C Z = A S s X X X X X X X X .   ",
"  . X X X X X X X X s d f = f d C Z = D F s X X X X X X X X .   ",
"  . X X X X X X X X s d f = f d G H = J K s X X X X X X X X .   ",
"  . X X X X X X X X s d f = f d L P = D F s X X X X X X X X .   ",
"  . X X X X X X X X s d f = f I U Y T R E s X X X X X X X X .   ",
"  . X X X X X X X X r t > : > W Q ! ~ ^ / r X X X X X X X X .   ",
"  . X X X X X X X X X 4 5 6 5 7 ( ) _ ` 4 X X X X X X X X X .   ",
"  . X X X X X X X X X 4 5 6 5 7 ' ] e w 4 X X X X X X X X X .   ",
"  . X X X X X X X X X + ; : > [ { } |  .+ X X X X X X X X X .   ",
"  . X X X X X X X X X X @ # $ ..X.* = - X X X X X X X X X X .   ",
"  . X X X X X X X X X X X X o O O O O + X X X X X X X X X X .   ",
"  . X X X X X X X X X X X X X X X X X X X X X X X X X X X X .   ",
"  . . X X X X X X X X X X X X X X X X X X X X X X X X X X X .   ",
"    . . X X X X X X X X X X X X X X X X X X X X X X X X X .     ",
"      . . . . . . . . . . . . . . . . . . . . . . . . . .       ",
"                                                                "
};
