/* XPM */
static char *result[] = {
/* columns rows colors chars-per-pixel */
"32 32 115 2 ",
"   c #40264D",
".  c #644574",
"X  c #563767",
"o  c #5E3E5D",
"O  c #8C6A21",
"+  c #6D4D49",
"@  c #654553",
"#  c #826036",
"$  c #B58E26",
"%  c #A37E1C",
"&  c #B58F28",
"*  c #B89433",
"=  c #957236",
"-  c #704F46",
";  c #634356",
":  c #82603A",
">  c #AB8520",
",  c #CDA332",
"<  c #BF972B",
"1  c #AF8923",
"2  c #B68F26",
"3  c #CEA434",
"4  c #D1AB43",
"5  c #B99431",
"6  c #957231",
"7  c #684850",
"8  c #83612C",
"9  c #AD8721",
"0  c #9D7919",
"q  c #D0A940",
"w  c #C19D3B",
"e  c #957215",
"r  c #BD952A",
"t  c #C59C2E",
"y  c #CFA639",
"u  c #D3AE4A",
"i  c #BC9429",
"p  c #A8831F",
"a  c #CBA131",
"s  c #BE962C",
"d  c #BF9A34",
"f  c #B08B26",
"g  c #B28C28",
"h  c #D1AA41",
"j  c #715044",
"k  c #C49B2D",
"l  c #CDA434",
"z  c #AF8A29",
"x  c #A5811F",
"c  c #B29036",
"v  c #836340",
"b  c #C69D2E",
"n  c #AE8822",
"m  c #B28B24",
"M  c #D2AC45",
"N  c #B59130",
"B  c #A98523",
"V  c #DABB65",
"C  c #A9872C",
"Z  c #7A5938",
"A  c #D0A83C",
"S  c #D3AF4C",
"D  c #C3A043",
"F  c #DFC47A",
"G  c #AA8932",
"H  c #CDA433",
"J  c #D5B253",
"K  c #C7A752",
"L  c #E2C884",
"P  c #AB8B35",
"I  c #D7B458",
"U  c #C9AB59",
"Y  c #E5CF94",
"T  c #B1913A",
"R  c #7E5C39",
"E  c #6A4950",
"W  c #9B7616",
"Q  c #D9B861",
"!  c #CCB064",
"~  c #E8D49E",
"^  c #B2923D",
"/  c #6C4B50",
"(  c #A47D17",
")  c #DBBC69",
"_  c #CEB46E",
"`  c #E8D39C",
"'  c #AD8E3C",
"]  c #6F4E51",
"[  c #AF8619",
"{  c #E5CE92",
"}  c #AC8C39",
"|  c #D6B355",
" . c #B8973D",
".. c #AB8729",
"X. c #5F3F5D",
"o. c #765445",
"O. c #CDA333",
"+. c #D3AF4A",
"@. c #B08D2D",
"#. c #A9872D",
"$. c #CFAD53",
"%. c #8C6B48",
"&. c #BD962B",
"*. c #BF9932",
"=. c #B6953B",
"-. c #B18719",
";. c #704E51",
":. c #D9B962",
">. c #D4B04D",
",. c #C6A54C",
"<. c #BF9A36",
"1. c #9D7A36",
"2. c #B89331",
"3. c #997637",
"4. c #755346",
/* pixels */
"                                                                ",
"      . . . . . . . . . . . . . . . . . . . . . . . . . .       ",
"    . X X X X X X X X X X X X X X X X X X X X X X X X X X .     ",
"  . X X X X X X X X X X X X X X X X X X X X X X X X X X X X .   ",
"  . X X X X X X X X X X X X X X X X X X X X X X X X X X X X .   ",
"  . X X X X X X X X X X o O O O O O O O + X X X X X X X X X .   ",
"  . X X X X X X X X X @ # $ $ % % & * * = - X X X X X X X X .   ",
"  . X X X X X X X X ; : > , < 1 2 3 4 4 5 6 7 X X X X X X X .   ",
"  . X X X X X X X X 8 9 , , 0 $ , , , , q w e X X X X X X X .   ",
"  . X X X X X X X e r , t e t , $ e e e $ y u e 7 X X X X X .   ",
"  . X X X X X X X e r i p r a 2 1 s w d f g h e 7 X X X X X .   ",
"  . X X X X X o j 9 k $ 0 , , 9 9 l q 4 z x y c v @ X X X X .   ",
"  . X X X X X 7 e , , $ 0 , b n m , , M N B t V C Z X X X X .   ",
"  . X X X X X 7 e , , $ 0 , 0 $ , , , A S D e F G Z X X X X .   ",
"  . X X X X X 7 e , , $ 0 , 0 $ , , , H J K e L P Z X X X X .   ",
"  . X X X X X 7 e , , $ 0 , 0 $ , , , , I U e Y T R X X X X .   ",
"  . X X X X X E W , , $ 0 , 0 $ , , , , Q ! e ~ ^ R X X X X .   ",
"  . X X X X X / ( , , $ 0 , 0 $ , , , , ) _ e ` ' Z X X X X .   ",
"  . X X X X X ] [ , , $ 0 , 0 $ , , , , ) _ e { } Z X X X X .   ",
"  . X X X X X / ( , , $ 0 , b n m , , |  ...t ` ' Z X X X X .   ",
"  . X X X X X X.o.9 k $ 0 , , 9 9 O.y +.@.#.) $.%.@ X X X X .   ",
"  . X X X X X X X e r i p r a 2 1 &.*.*.f =.L -.;.X X X X X .   ",
"  . X X X X X X X e r , t e t , $ e e e $ q :.e 7 X X X X X .   ",
"  . X X X X X X X X 8 9 , , 0 $ , , , , >.,.e X X X X X X X .   ",
"  . X X X X X X X X ; : > , < 1 2 , , h <.1.7 X X X X X X X .   ",
"  . X X X X X X X X X @ # $ $ % % $ $ 2.3.4.X X X X X X X X .   ",
"  . X X X X X X X X X X o O O O O O O O + X X X X X X X X X .   ",
"  . X X X X X X X X X X X X X X X X X X X X X X X X X X X X .   ",
"  . . X X X X X X X X X X X X X X X X X X X X X X X X X X X .   ",
"    . . X X X X X X X X X X X X X X X X X X X X X X X X X .     ",
"      . . . . . . . . . . . . . . . . . . . . . . . . . .       ",
"                                                                "
};
