/* XPM */
static char *result[] = {
/* columns rows colors chars-per-pixel */
"32 32 83 1 ",
"  c #40264D",
". c #644574",
"X c #563767",
"o c #5E3E5D",
"O c #8C6A21",
"+ c #84622B",
"@ c #5F3F5B",
"# c #957215",
"$ c #B6953B",
"% c #A68328",
"& c #A37E1C",
"* c #AC8728",
"= c #7A5938",
"- c #5B3C60",
"; c #715048",
": c #A5801D",
"> c #CFAB4C",
", c #BC9A3F",
"< c #B28D2C",
"1 c #BA9228",
"2 c #715044",
"3 c #9D7919",
"4 c #CDA332",
"5 c #D6B254",
"6 c #BE9D48",
"7 c #BC9B41",
"8 c #76553D",
"9 c #9B772C",
"0 c #BF972B",
"q c #BD9D46",
"w c #D1B15A",
"e c #BF9C3E",
"r c #83612C",
"t c #AD8721",
"y c #CAA030",
"u c #B58E26",
"i c #B5943C",
"p c #BA9A45",
"a c #C9A952",
"s c #CFAE56",
"d c #C59C2E",
"f c #D6BB71",
"g c #B59643",
"h c #B4943E",
"j c #D3B667",
"k c #DFCA95",
"l c #BA9E55",
"z c #B99C50",
"x c #DCC68A",
"c c #DDC78C",
"v c #BA9E54",
"b c #DECA93",
"n c #DEC890",
"m c #B99D53",
"M c #B99D52",
"N c #DDC88F",
"B c #E0CC99",
"V c #BA9F57",
"C c #BA9F56",
"Z c #DFCC98",
"A c #E1CF9E",
"S c #BBA059",
"D c #BBA15A",
"F c #E1CF9F",
"G c #B3933B",
"H c #D2B361",
"J c #B59540",
"K c #D4B86A",
"L c #B89A4A",
"P c #BC9F4F",
"I c #D0B56D",
"U c #DAC383",
"Y c #BFA04D",
"T c #D9BF7A",
"R c #CCB371",
"E c #D2AC47",
"W c #D6B458",
"Q c #CEAA4B",
"! c #CCA53E",
"~ c #C1992D",
"^ c #B59235",
"/ c #B28C27",
"( c #AF881E",
/* pixels */
"                                ",
"   ..........................   ",
"  .XXXXXXXXXXXXXXXXXXXXXXXXXX.  ",
" .XXXXXXXXXXXXXXXXXXXXXXXXXXXX. ",
" .XXXXXXXXXXXXXXXXXXXXXXXXXXXX. ",
" .XXXXXXXXXXoOOOO+XXXXXXXXXXXX. ",
" .XXXXXXXXXX@#$%&*=-XXXXXXXXXX. ",
" .XXXXXXXXXo;:>,<1:;oXXXXXXXXX. ",
" .XXXXXXXXX2344563432XXXXXXXXX. ",
" .XXXXXXXXX2343773432XXXXXXXXX. ",
" .XXXXXXXX89043qwe:198XXXXXXXX. ",
" .XXXXXXXXrtyuipas#dtrXXXXXXXX. ",
" .XXXXXXXXrtd#fghj#dtrXXXXXXXX. ",
" .XXXXXXXXrtd#klzx#dtrXXXXXXXX. ",
" .XXXXXXXXrtd#czvb#dtrXXXXXXXX. ",
" .XXXXXXXXrtd#nmMN#dtrXXXXXXXX. ",
" .XXXXXXXXrtd#BVCZ#dtrXXXXXXXX. ",
" .XXXXXXXXrtd#ASDF#dtrXXXXXXXX. ",
" .XXXXXXXXrtd#klGH#dtrXXXXXXXX. ",
" .XXXXXXXXrtd#czJK#dtrXXXXXXXX. ",
" .XXXXXXXXrtyuLPIU#dtrXXXXXXXX. ",
" .XXXXXXXX89043YTR:198XXXXXXXX. ",
" .XXXXXXXXX2343663432XXXXXXXXX. ",
" .XXXXXXXXX234EW73432XXXXXXXXX. ",
" .XXXXXXXXXo;:Q!~1:;oXXXXXXXXX. ",
" .XXXXXXXXXX@#^/(*=-XXXXXXXXXX. ",
" .XXXXXXXXXXoOOOO+XXXXXXXXXXXX. ",
" .XXXXXXXXXXXXXXXXXXXXXXXXXXXX. ",
" ..XXXXXXXXXXXXXXXXXXXXXXXXXXX. ",
"  ..XXXXXXXXXXXXXXXXXXXXXXXXX.  ",
"   ..........................   ",
"                                "
};
