/* XPM */
static char *result[] = {
/* columns rows colors chars-per-pixel */
"32 32 33 1 ",
"  c #40264D",
". c #644574",
"X c #7A7290",
"o c #563767",
"O c #58526A",
"+ c #413D4F",
"@ c #2C2116",
"# c #766047",
"$ c #836B52",
"% c #634E38",
"& c #78624B",
"* c #67594B",
"= c #796858",
"- c #4C3928",
"; c #523F2C",
": c #999088",
"> c #AEA59D",
", c #B0AAA2",
"< c #B3AEA7",
"1 c #B2ACA4",
"2 c #766D66",
"3 c #81776F",
"4 c #888078",
"5 c #3E2D1E",
"6 c #7C644D",
"7 c #B9B9B9",
"8 c #727272",
"9 c #777777",
"0 c #606060",
"q c gray28",
"w c gray50",
"e c #66513D",
"r c #AAA098",
/* pixels */
"                                ",
"   ....XXXXXXXXXXXXXXXXXX....   ",
"  .ooXXOOOOOOOOOOOOOOOOOOXXoo.  ",
" .ooXOOOOOOOOOOOOOOOOOOOOOOXoo. ",
" .oXOOOOOOOOOOOOOOOOOOOOOOOOXo. ",
" .XOOOO++++++++++++++++++OOOOX. ",
" XOOOO++@@@@@@@@@@@@@@@@++OOOOX ",
"XOOOO++@@#$@%$@#&@*=@==@@++OOOOX",
"XOOO++@-@-%@--@%-@-%@@%@#@++OOOX",
"XOOO+@-;@--@--@%-@-%%@-@--@+OOOX",
"XOOO+@-;@--@--@;;@--@@-@;-@+OOOX",
"XOOO+:>,:::::::<1:::::::>>:+OOOX",
"XOOO+2342222222332222222332+OOOX",
"XOOO+@55@55@55@5@555@55@55@+OOOX",
"XOOO+@%;@-;@-;@-@;-;@-;@-;@+OOOX",
"XOOO+@%;@-;@-;@-@%-;@%;@-;@+OOOX",
"XOOO+@%;@-6@-;@-@%-;@%;@-;@+OOOX",
"XOOO+@%;@%;@-;@-@#%;@%;@%;@+OOOX",
"XOOO+@%;@%;@-;@-@@%;@%777;@+OOOX",
"XOOO+@%;@%;@-;@#%@%;@%898;@+OOOX",
"XOOO+@%;@%;@-;@%%@%;@0qqq0@+OOOX",
"XOOO+@%;@%-@--@-%@%-7;-@%;7+OOOX",
"XOOO+@%;@%-@--@-%@%-0;-@%-0+OOOX",
"XOOO+@%;@%-@@-@-%@%-@8www8@+OOOX",
"XOOO+@--@%e6@-@-%@%-@;qqq-@+OOOX",
"XOOO+@--@--;@-@--@%@@;-@--@+OOOX",
"XOOO+@--@-;@--@--@;@;;-@--@+OOOX",
"XOOO+:r,:::::::r,:::::::r,:+OOOX",
"XOOO+2332222222332222222332+OOOX",
"XOOO+@55@55@55@55@55@55@55@+OOOX",
"XOOO+@--@@-@--@--@--@--@--@+OOOX",
"XOOO+@--e@-@e-@-%@--@--@--@+OOOX"
};
