/* XPM */
static char *result[] = {
/* columns rows colors chars-per-pixel */
"32 32 47 1 ",
"  c #0B0C0D",
". c #0E0F10",
"X c #0F1012",
"o c #121415",
"O c #141619",
"+ c #17191B",
"@ c #191B1D",
"# c #1C1E21",
"$ c #1E2123",
"% c #212326",
"& c #242529",
"* c #26282C",
"= c #282A2E",
"- c #2C2E31",
"; c #2D3134",
": c #313236",
"> c #343539",
", c #37393D",
"< c #393A3E",
"1 c #3C3E42",
"2 c #40264D",
"3 c #503A5B",
"4 c #563767",
"5 c #573E66",
"6 c #5A3E6A",
"7 c #3F4145",
"8 c #414247",
"9 c #434549",
"0 c #46494D",
"q c #494B4E",
"w c #4C4E53",
"e c #53455E",
"r c #4F5156",
"t c #4F5258",
"y c #505257",
"u c #53555A",
"i c #575A5F",
"p c #564362",
"a c #584263",
"s c #574C61",
"d c #5C5D60",
"f c #644574",
"g c #654C74",
"h c #6C5E74",
"j c #6F557C",
"k c #705C7B",
"l c #868889",
/* pixels */
"22222222222222%%%122222222222222",
"222ffffffff9=-qqq2&:gffffffff222",
"22f444444e=98;>1<;,q>>ae44444f22",
"2f444445<:>>=%#%$@*;<=,9444444f2",
"2f4444p<91*@       X#>97944444f2",
"2f444s*><% X%*****=@ +>>=>a444f2",
"2f44d88=#.*>8899999<-oO=>9>k44f2",
"2f46:11=o*7wrryyrrrq0:O@>>>144f2",
"2f4u;:;oo1yyyrryyyyyr0* &>=<l4f2",
"2f4=7=@.*1wiw99wrrrryr<Oo%>1w4f2",
"2f4&11@ ,911w988999qww7# ;9:q4f2",
"2f4#-<+ <r011ww99997991# ->%q4f2",
"2f4->=O ,ryr91wwwwq9971$ %-<q4f2",
"2f4*8>+ ,ryyy8,,790rr01$ *8<q4f2",
"2f4%->+ ,yyyywww7<<17rq% >9>w4f2",
"2f4%:*o :99wyyyyrwq72,># ;<:q4f2",
"1f4#-:O.:889wwrrryrrr91# =:&q4f1",
"2f4-:%o :888998qwwyyyyq$ $=:q5f2",
"2f4*97+ :888888899yyuir$ ,0=04f2",
"2f5%<0@ :888989wuuiiq11# :1:04f2",
"2f4$:<@.:99qyuu7,,<,11<# *,,04f2",
"2f4#&&o <tyw<,,777770r0$ $*%04f2",
"2f4&70@ ->>,999wrrrrtr0$ >0,w4f2",
"2f4%10@.:00qrryyyyyyrww$ *1>w4f2",
"2f4&12@ ,yyyyyyyyrwq9w7$ %=:04f2",
"2f4&1-+ ,yyyyyr09099r7,$ *::w4f2",
"2f4#%%o <wrywq99977w779$ #%#04f2",
"2ff&99@.:797999779w91q9$ >01q4f2",
"2fj&:9@ :97979779w91q91$ ,9>q4f2",
"22j@*<@ :7979799r71q981$ >2:qf22",
"22h%:,+ ;777777r71w077<$ =>,w222",
"223==;&$<17<;-=;=;<;,11-$==;u622"
};
