/* XPM */
static char *result[] = {
/* columns rows colors chars-per-pixel */
"32 32 100 2 ",
"   c #050202",
".  c #090408",
"X  c #130711",
"o  c #160A15",
"O  c #180C17",
"+  c #160E1A",
"@  c #180F1C",
"#  c #1B101E",
"$  c #220E14",
"%  c #341713",
"&  c #3C1B16",
"*  c #391A1E",
"=  c #1D1120",
"-  c #260F22",
";  c #251325",
":  c #2A1125",
">  c #26162B",
",  c #2F1329",
"<  c #29192F",
"1  c #301427",
"2  c #35162C",
"3  c #3D192B",
"4  c #2B1A30",
"5  c #3E1B32",
"6  c #3F1F38",
"7  c #372136",
"8  c #382136",
"9  c #421E17",
"0  c #42211B",
"q  c #4D271C",
"w  c #401B27",
"e  c #421C2D",
"r  c #552421",
"t  c #5A2622",
"y  c #5D2826",
"u  c #50242F",
"i  c #5C2A2D",
"p  c #462234",
"a  c #58303D",
"s  c #642C25",
"d  c #6A2F27",
"f  c #652D2D",
"g  c #692F2E",
"h  c #6D3129",
"j  c #73342A",
"k  c #79362B",
"l  c #76382C",
"z  c #7D392C",
"x  c #6B3432",
"c  c #6B3837",
"v  c #663339",
"b  c #683538",
"n  c #7D3E31",
"m  c #79452B",
"M  c #3D2744",
"N  c #3E2947",
"B  c #412B4B",
"V  c #522C44",
"C  c #452D53",
"Z  c #4E2D53",
"A  c #4F335D",
"S  c #543763",
"D  c #573967",
"F  c #583968",
"G  c #813F24",
"H  c #853D2E",
"J  c #853F30",
"K  c #883F30",
"L  c #8E531E",
"P  c #955A1B",
"I  c #99621B",
"U  c #AD651A",
"Y  c #B56D16",
"T  c #844123",
"R  c #874923",
"E  c #89402E",
"W  c #954D27",
"Q  c #994F25",
"!  c #954C2D",
"~  c #915F20",
"^  c #9C542A",
"/  c #844132",
"(  c #8B4433",
")  c #8B483A",
"_  c #914634",
"`  c #934934",
"'  c #9A4C37",
"]  c #954D3C",
"[  c #9A4D38",
"{  c #9F5039",
"}  c #A05829",
"|  c #A15A37",
" . c #A05A38",
".. c #AD612D",
"X. c #B0622A",
"o. c #B6722D",
"O. c #B16D30",
"+. c #CB821D",
"@. c #D58B17",
"#. c #D58A18",
/* pixels */
"  . X 4 C S S S S S S S A M O X X O M A S S S S S S S C < O > S ",
"  . X < C D D D F F F F S M O X X O M S S F F F F F S C < O < F ",
"  X , 1 ; @ @ @ @ @ @ + # , , , , , , = @ + @ O # @ # ; 2 : # + ",
"  O w 3 1 - - ; - - - - - 2 e e e e 2 : - - - - - - - , 3 3 $   ",
"  0 n x u e e 5 e e e e e i J ) ) J i e e e e e 5 5 e u x n 0   ",
"  q _ ( l g f f f f f f g J ] { { ] z g f f f f f f g l ( _ q   ",
"  & j z z z k z H j k j k n k k z z k k k z z z z k z z z j &   ",
"  % y s d d d d h d f f y i y y i y f y i f g h d d d d s y %   ",
"  % r y s d j j j x i e e e p p p p 5 5 e i x k j d d s y r %   ",
"  9 s j H _ _ ( ' ] v p M C S S S S B N p v ] ] _ _ _ K j s 9   ",
"  9 s j K _ ` ( ` ] v 6 N N M 6 e M N N p v ] ] ( _ _ K j s 9   ",
"  9 s j K / H H ` ] v 6 N N M e e M N N 6 v { K J n / K j s 9   ",
"  9 s j H j k H ' ] v 6 N N M , , M N N 6 v ] ] H z j z j s 9   ",
"  9 s j z j k H ] ] v 6 N N M , , N N N 6 v ] ] H j j G j s 9   ",
"  9 s j z j j H ' ] v 6 N N M , , M N N p v ] ' K k h z j s 9   ",
"  9 s j z j j H ' ] v p N N M , , N N N e v ] ' H k j H j s 9   ",
"  9 s j G h k K { ] v 6 N N M , , M N N 6 b { { K k h H h s 9   ",
"  9 s j k j z Q ..{ b 6 N N M , , M N N 6 b  ...! z j k j s 9   ",
"  9 s j H h G U +.o.c 6 N N M , , M N N 6 c O.+.U G j H j s 9   ",
"  9 s j k j G Y @.o.c 6 N N M , , M N N 6 c o.#.Y G j z j s 9   ",
"  9 s j z j k Q ..| c 8 N N M , , M N N p v { X.Q k j z j s 9   ",
"  9 s j z j j H ' ] v p N N M , , M N N 6 v [ { H j j z j s 9   ",
"  9 s j z j j J ' ] v 6 N N M : , M N N 6 v ] K K j j z k s 9   ",
"  9 s j z j k J ' ] v 6 N N N 5 5 M N N 6 v ] ] K k h H j s 9   ",
"  9 s j z d s d / ) v 6 N N M 5 5 N N N 6 v ) J j s h z k s 0   ",
"  9 s d H H / ( ] ] b 6 N N A A Z S N N 6 v ] ] E H / z h s 9   ",
"  9 s s h l H z / m i p p p V V V V p p e i m / H z l h t s 9   ",
"  9 s d h l l l l l j h h h h h h h h h h x l z k k l h s s 9   ",
"  & s j / E ! ^ ^ } ^ ` ( / ( ( ( / ( ( ` ^ ^ ^ ^ ! ( E j s &   ",
"  % s j z H R L P I ~ m x x x c b x h x m ~ I P L R T k h s &   ",
"  0 z H H z a N N N N N N N N N N N N N N N N N N a z H H z 9   ",
"  & h j t * 8 N N N N N N N N N N N N N N N N N N 7 * r j h &   "
};
