/* XPM */
static char *result[] = {
/* columns rows colors chars-per-pixel */
"32 32 196 2 ",
"   c #40264D",
".  c #493D51",
"X  c #2B2D30",
"o  c #424448",
"O  c #2E3135",
"+  c #4D3B39",
"@  c #35363A",
"#  c #3A3B3F",
"$  c #2F3134",
"%  c #36383C",
"&  c #47494D",
"*  c #34363A",
"=  c #323437",
"-  c #473153",
";  c #644574",
":  c #634A71",
">  c #393C40",
",  c #333438",
"<  c #282A2E",
"1  c #705654",
"2  c #8F7772",
"3  c #2E3034",
"4  c #38383D",
"5  c #2C2F32",
"6  c #34373B",
"7  c #45484B",
"8  c #563767",
"9  c #564362",
"0  c #434448",
"q  c #3E3F44",
"w  c #24262A",
"e  c #B7A099",
"r  c #1B1E21",
"t  c #3F4044",
"y  c #3F4144",
"u  c #574C61",
"i  c #25272B",
"p  c #292B2F",
"a  c #333639",
"s  c #5B3E6B",
"d  c #5C5D60",
"f  c #414247",
"g  c #404246",
"h  c #34373A",
"j  c #786583",
"k  c #442C51",
"l  c #3D3E42",
"z  c #323337",
"x  c #3C3E41",
"c  c #555659",
"v  c #313237",
"b  c #393C3F",
"n  c #868889",
"m  c #292C2F",
"M  c #3E4044",
"N  c #282B2E",
"B  c #EEBE93",
"V  c #35373B",
"C  c #3C3E42",
"Z  c #4B4D50",
"A  c #212327",
"S  c #3B3C41",
"D  c #3D3F43",
"F  c #414246",
"G  c #313136",
"H  c #4A4C4E",
"J  c #2B2D31",
"K  c #38393D",
"L  c #2C2E32",
"P  c #484B4D",
"I  c #2A2D31",
"U  c #28292D",
"Y  c #FFE1AF",
"T  c #D7906E",
"R  c #202226",
"E  c #2B2E32",
"W  c #3B3D41",
"Q  c #534721",
"!  c #4A4C4F",
"~  c gray85",
"^  c #2E1E22",
"/  c #D9D9DD",
"(  c #27292D",
")  c #222428",
"_  c #2B2C31",
"`  c #37393D",
"'  c #17191B",
"]  c #9D704C",
"[  c gray95",
"{  c #928A8C",
"}  c #0B0C0D",
"|  c #34363B",
" . c #444549",
".. c #333338",
"X. c #2F3034",
"o. c #242629",
"O. c #121517",
"+. c #0C0D0E",
"@. c white",
"#. c #5C2E00",
"$. c #1C1F21",
"%. c #0A0C0D",
"&. c #3A3B40",
"*. c #2E2F34",
"=. c #4A4B4E",
"-. c #1A1D21",
";. c #2A2C30",
":. c #303135",
">. c #151719",
",. c #964F00",
"<. c #125600",
"1. c #0A0B0D",
"2. c #313236",
"3. c #232529",
"4. c #484A4D",
"5. c #509C00",
"6. c #217500",
"7. c #1F2226",
"8. c #313438",
"9. c #26272B",
"0. c #424348",
"q. c #16181B",
"w. c #303236",
"e. c #47494E",
"r. c #3C3D41",
"t. c #45474B",
"y. c #181A1D",
"u. c #87CB00",
"i. c #343439",
"p. c #393A3E",
"a. c #27282C",
"s. c #1A1D20",
"d. c #232629",
"f. c #24272A",
"g. c #131518",
"h. c #444444",
"j. c #1E2024",
"k. c #26282C",
"l. c #222528",
"z. c #44464A",
"x. c #171A1C",
"c. c #9F8781",
"v. c #545456",
"b. c #6D6D6E",
"n. c #323539",
"m. c #46484C",
"M. c #37383C",
"N. c #8B5E4A",
"B. c #A77E5D",
"V. c #B89D92",
"C. c #323234",
"Z. c #77584A",
"A. c #232428",
"S. c #39393E",
"D. c #505257",
"F. c #4B4E53",
"G. c #2B2C30",
"H. c #25282B",
"J. c #37373C",
"K. c #15171A",
"L. c #4F5156",
"P. c #3F4246",
"I. c #2F2F34",
"U. c #333439",
"Y. c #212427",
"T. c #36393C",
"R. c #4D4F54",
"E. c #4E5055",
"W. c #404347",
"Q. c #1E2123",
"!. c #1C1E22",
"~. c #202225",
"^. c #25272A",
"/. c #424347",
"(. c #313337",
"). c #494B50",
"_. c #45474C",
"`. c #46484D",
"'. c #484A4E",
"]. c #434449",
"[. c #3C3E43",
"{. c #1D2022",
"}. c #1B1D20",
"|. c #3B3C40",
" X c #17191C",
".X c #44454A",
"XX c #1D1F22",
"oX c #313336",
"OX c #3E3E43",
"+X c #323237",
"@X c #1D1F23",
"#X c #404146",
"$X c #3E4145",
"%X c #48494E",
"&X c #1D1F21",
"*X c #36363B",
/* pixels */
"              . X X o o O + @ + # $ + % & * = - -               ",
"      ; ; : > O , , + < + 1 + 2 + + 1 + 3 4 5 6 6 7 ; ; ;       ",
"    ; 8 9 # 0 q w + 1 + 1 2 1 e 2 + 2 1 + r + o o t y 8 8 ;     ",
"  ; 8 8 9 # + q + 1 2 + 2 e 2 e 2 1 e 2 1 + 2 + o t y 8 8 8 ;   ",
"  ; u u i + 1 + 1 2 e 1 2 e 1 2 2 2 e 2 1 e 2 1 + + p a s s ;   ",
"  d f f o + 2 + 1 2 e 1 2 2 1 2 2 1 2 2 2 e 2 1 + 2 + g h h j   ",
"k = l l + 1 e 2 1 2 2 1 1 2 2 2 1 1 2 1 1 2 1 2 2 1 + z , , x   ",
"c 3 v v + 1 2 2 2 1 2 2 2 e 2 1 2 2 1 2 2 1 2 2 2 + 2 + p p b n ",
"m M N + 2 + 1 2 1 e 2 1 e 2 1 B 1 2 e 2 e 2 1 1 2 2 1 + V V C Z ",
"A S D + 1 2 2 2 1 e 2 1 2 1 B B B 1 e 1 2 e 1 2 2 2 1 + F F G H ",
"r J K K + 1 2 e 1 2 1 B 1 B B B B 1 2 B 1 2 1 e 2 1 + L , , w P ",
"I % U U + 1 1 2 1 1 B B Y Y Y Y Y Y 1 B B 1 T 2 1 1 + R E E W Z ",
"i f V + 1 1 T 2 T 1 Q Q Q Y Y Y Y Y Q Q Q B T 2 T 1 1 + g g K ! ",
"i f V V + 1 T 1 T B ~ ^ / Y Y Y Y Y / ^ ~ B T 1 T 1 + ( g g K ! ",
") _ ` ` ' + Q + ] B [ ^ { Y Y Y Y Y { ^ [ B ] + Q + } |  . ...! ",
"A X.o.o.O.+.+ Q ] B @.#.#.Y Y Y Y Y #.#.@.B ] Q + $.%.3 &.&.*.=.",
"-.;.:.:.>.+ 1 1 Q T B ,.,.Y Y Y Y Y ,.,.B T Q <.<.+ 1.< 2.2.3.4.",
"J * A A O.+.+ + Q Q T B Y Y Y Y Y Y Y B T Q <.5.6.<.1.7.p p 8.! ",
"9.0.q q q.+.w.Q ] 6.Q ] T B B B B B T ] Q 6.6.<.<.<.} 6 e.e.< 4.",
") r.t.t.y.+.Q ] Y 6.5.Q Q Q Q Q Q Q Q Q 6.5.u.u.5.6.<.w.l l z ! ",
"A i.p.p.q.+.Q Y B T 6.5.5.u.u.u.u.u.5.6.<.6.5.5.6.<.1.a.K K @ ! ",
"s.d.f.f.g.Q ] B T Q h.6.6.5.5.5.5.5.6.6.h.Q T B ] Q 1.j.k.k.l.4.",
"f.f z.z.x.Q c.B ] Q h.v.v.b.b.b.b.b.v.v.h.Q ] B c.Q %.n.m.m.M.! ",
"f.f z.z.Q N.B.V.Q C.Z.h.v.b.b.b.b.b.v.h.Z.C.Q V.B.N.Q n.m.m.M.! ",
"A.l m.m.Q B.B.N.Q C.h.Z.N.N.{ { { N.N.Z.h.C.Q N.B.B.Q < D D , ! ",
"A.S.t t Q N.N.Q D.C.h.h.v.v.b.b.b.v.v.h.h.C.F.Q N.N.Q ) G.G.X.! ",
"H.J., , K.Q Q L.D.C.h.v.v.h.h.h.h.h.v.v.h.C.P.% Q Q 1.U I.I.U.! ",
"s.Y.R R O.+.T.R.E.E.C.v.b.v.C.C.C.v.b.v.C.W.q z.z.Q.1.!.Y.Y.~.4.",
"^./.z.z.x.+.(.0.0.0.Q c.N.c.Q f Q c.N.c.Q D )._._.Q.%.n.`.`.` ! ",
"A., o o y.+.w.f f f Q N.N.Z.Q f Q Z.N.N.Q '.].[.[.{.} V z.z., ! ",
"}.9.|.|. X+.w.f f f Q B.B.N.Q 0.Q N.B.B.Q .Xf C C XX%.oXOXOX+X! ",
"@X:.p.p.q.+.w.#X#X#X#XQ Q Q g R.$XQ Q Q %X#X#XW W &X1.< *X*X@ ! "
};
