/* XPM */
static char *result[] = {
/* columns rows colors chars-per-pixel */
"32 32 33 1 ",
"  c #40264D",
". c #4D3B39",
"X c #644574",
"o c #705654",
"O c #8F7772",
"+ c #563767",
"@ c #B7A099",
"# c #9D704C",
"$ c #EEBE93",
"% c #D7906E",
"& c #FFE1AF",
"* c #534721",
"= c gray85",
"- c #2E1E22",
"; c #D9D9DD",
": c gray95",
"> c #928A8C",
", c white",
"< c #5C2E00",
"1 c #964F00",
"2 c #125600",
"3 c #217500",
"4 c #509C00",
"5 c #87CB00",
"6 c #545456",
"7 c #6D6D6E",
"8 c #444444",
"9 c #323234",
"0 c #9F8781",
"q c #B89D92",
"w c #8B5E4A",
"e c #A77E5D",
"r c #77584A",
/* pixels */
"        ..   ....  ...          ",
"   XXXX.oo...oOOo..oOo.XXXXXX   ",
"  X++++.OOOOo.oO@Oo.O@o.+++++X  ",
" X++++.oOOOooo.oO@OOo@O.++++++X ",
" X++++.oOOoOO@@OoOOOoOOo.+++++X ",
" X+++..oooooOOOOOoOoOoooo.++++X ",
" X++.o.oOO@@OoOoooOOoOOoOo.+++X ",
" X++.OO.oOOOOOoOoOOOOOOoOo.+++X ",
" X++.oOOOooOOoOOo@Oo@Oo#OO.+++X ",
" X++.ooOoOOOoO@o@Ooo@o$%Oo.+++X ",
" X+++.ooO@@Oo@OoOo$oOo$$o.++++X ",
" X++++..ooOOoOooo&&&o$$$*+++++X ",
" X+++.oooooo.ooOO&***&$$*+++++X ",
" X++++.oOOOo&$oOO&=-;&&$*+++++X ",
" X++++..oOOo&#$O&&:->&&$*+++++X ",
" X+++.oo.oOo$#&O&&,<<&&%*+++++X ",
" X++++.ooooo*%$O&&&11&$#*+++++X ",
" X+++++..ooo#%%$&&&&&$%*++++++X ",
" X+++++++..oo#%%$$$%%#*+++++++X ",
" X++++++233..*********2+++++++X ",
" X+++++++23323344555432+++++++X ",
" X++++++++2*%&&63444332+++++++X ",
" X+++++++++*%&&6777789++++++++X ",
" X+++++++++*$$%*677689++++++++X ",
" X+++++++++*0qq*wwww>9++++++++X ",
" X+++++++++*wee*667689++++++++X ",
" X+++++++++*wee*67689+++++++++X ",
" X++++++++++***67789++++++++++X ",
" XX++++++++++*0qqw*+++++++++++X ",
"  XX+++++++++*rwew*++++++++++X  ",
"   XXXXXXXXXX*rwee*XXXXXXXXXX   ",
"              ****              "
};
