/* XPM */
static char *result[] = {
/* columns rows colors chars-per-pixel */
"32 32 25 1 ",
"  c #40264D",
". c #4D3B39",
"X c #644574",
"o c #705654",
"O c #8F7772",
"+ c #563767",
"@ c #B7A099",
"# c #125600",
"$ c #217500",
"% c #509C00",
"& c #9D704C",
"* c #534721",
"= c #87CB00",
"- c #EEBE93",
"; c #FFE1AF",
": c #D7906E",
"> c #444444",
", c #9F8781",
"< c #B89D92",
"1 c #545456",
"2 c #8B5E4A",
"3 c #A77E5D",
"4 c #6D6D6E",
"5 c #323234",
"6 c #77584A",
/* pixels */
"            .  . .              ",
"   XXXXXXXX.o..O.o.X.XXXXXXXX   ",
"  X+++++.+.oO.O@oOo.o.+++++++X  ",
" X+++++.O.oO@oO@O@O.Oo.+.+++++X ",
" X+++..o@OoO@OOOO@Oo@Oo.o.++++X ",
" X++.O.oOOOOOOOOOOOO@Oo.O.++++X ",
" X++.oOOoOOoOOoOoOOOOOoO@o.+++X ",
" X+.O.O@OoOOooOoooOOOOOOOo.+++X ",
" X+.oOoOoOoOOo@OoOO@oOoOo.O.++X ",
" X+.oOOoo@OoOO@OOO@OOOooOOo.++X ",
" X++.oOooO@OOOOOoOOOOo@oOo.+++X ",
" X++.ooOOoOOOoOoOooOo@Oooo.+++X ",
" X+.oOOoOOoOOooOOoOOOOooOOo.++X ",
" X++.oOOoOOOOOoOOOOOOooOOo.+++X ",
" X+++.oOooOoOOOOOoOOOoOOo.++++X ",
" X++++.ooooooOoOOooOoooo.+++++X ",
" X+++.ooooooooooOoooooooo.++++X ",
" X+++#....oo.ooooo.oo....+++++X ",
" X++#$$#%$..o.ooo.o..$&*++++++X ",
" X+++##%=%$#.$...$.$%-;&*+++++X ",
" X+++*:=%$#$%=====%$>:--*+++++X ",
" X++*,<;:*>1$%%%%%$1>*,,2*++++X ",
" X+*233<&*>144444441>5232*++++X ",
" X+*2332*56>1444441>6522*+++++X ",
" X+*622*+5>622222226>5**++++++X ",
" X++***++5>144414441>5++++++++X ",
" X+++++++5>11>>>>141>5++++++++X ",
" X++++++++5111555441>+++++++++X ",
" XX+++++++*222*+*<<,*+++++++++X ",
"  XX+++++++***++6332*++++++++X  ",
"   XXXXXXXXXXXXX6333*XXXXXXXX   ",
"                                "
};
