/* XPM */
static char *result[] = {
/* columns rows colors chars-per-pixel */
"32 32 205 2 ",
"   c #050202",
".  c #090408",
"X  c #150A14",
"o  c #190E1A",
"O  c #1B101E",
"+  c #220E14",
"@  c #341713",
"#  c #3C1B16",
"$  c #391A1E",
"%  c #1F1522",
"&  c #2B1325",
"*  c #271628",
"=  c #371729",
"-  c #2B1A30",
";  c #35242A",
":  c #38262C",
">  c #392535",
",  c #3A393A",
"<  c #3F3334",
"1  c #421E17",
"2  c #48241B",
"3  c #401B27",
"4  c #5C2924",
"5  c #562727",
"6  c #4F3E2B",
"7  c #462D39",
"8  c #4A3A33",
"9  c #43313B",
"0  c #473A37",
"q  c #5C3A31",
"w  c #513C3E",
"e  c #583639",
"r  c #44212F",
"t  c #642C25",
"y  c #683027",
"u  c #6A3D26",
"i  c #6D332A",
"p  c #633C2B",
"a  c #693B2A",
"s  c #733429",
"d  c #743A2C",
"f  c #7D392C",
"g  c #78382A",
"h  c #6D3631",
"j  c #663D35",
"k  c #683931",
"l  c #733C32",
"z  c #7A3E32",
"x  c #285A09",
"c  c #3D5912",
"v  c #3B491B",
"b  c #1D6104",
"n  c #266B02",
"m  c #2A7901",
"M  c #367C04",
"N  c #3D6212",
"B  c #3A5230",
"V  c #3F4621",
"C  c #4D4419",
"Z  c #73461B",
"A  c #487113",
"S  c #4E472D",
"D  c #534622",
"F  c #574229",
"G  c #4B473F",
"H  c #5B4737",
"J  c #5D5232",
"K  c #69432D",
"L  c #6D4D2F",
"P  c #75472A",
"I  c #664636",
"U  c #63423B",
"Y  c #664D38",
"T  c #655236",
"R  c #7D5B3D",
"E  c #785336",
"W  c #6C5231",
"Q  c #69662C",
"!  c #7E7335",
"~  c #7B693A",
"^  c #3E2947",
"/  c #452D53",
"(  c #543A58",
")  c #4A3641",
"_  c #543763",
"`  c #573965",
"'  c #583968",
"]  c #494948",
"[  c #5D4D48",
"{  c #574646",
"}  c #5B514E",
"|  c #54554E",
" . c #555556",
".. c #634441",
"X. c #634D4D",
"o. c #684A45",
"O. c #66514D",
"+. c #6A544E",
"@. c #745A45",
"#. c #765742",
"$. c #6C5452",
"%. c #6C5E5A",
"&. c #665957",
"*. c #735D54",
"=. c #755D5A",
"-. c #785E5B",
";. c #5A6356",
":. c #78664A",
">. c #6A605D",
",. c #7B625F",
"<. c #77605D",
"1. c #6D6767",
"2. c #7D6562",
"3. c #786C67",
"4. c #6A7262",
"5. c #777576",
"6. c #843D2D",
"7. c #88581E",
"8. c #955A1B",
"9. c #99621B",
"0. c #954C2D",
"q. c #835228",
"w. c #9D532A",
"e. c #8A4332",
"r. c #914835",
"t. c #835935",
"y. c #874923",
"u. c #A05829",
"i. c #826E3C",
"p. c #83613D",
"a. c #877F3B",
"s. c #AF7738",
"d. c #825F44",
"f. c #835D4D",
"g. c #855F50",
"h. c #876448",
"j. c #89644D",
"k. c #886649",
"l. c #926B4E",
"z. c #85665B",
"x. c #936B54",
"c. c #936A5A",
"v. c #897558",
"b. c #967750",
"n. c #A5795A",
"m. c #A0734E",
"M. c #806764",
"N. c #826965",
"B. c #866D69",
"V. c #8A6F67",
"C. c #8A716C",
"Z. c #967867",
"A. c #8E7571",
"S. c #867B7B",
"D. c #927A75",
"F. c #967E79",
"G. c #907773",
"H. c #A57968",
"J. c #378700",
"K. c #3A8A00",
"L. c #438A03",
"P. c #519D00",
"I. c #539609",
"U. c #58A100",
"Y. c #64AD00",
"T. c #83C700",
"R. c #928B4B",
"E. c #AD845D",
"W. c #AA895B",
"Q. c #9A827C",
"!. c #A6826B",
"~. c #B78868",
"^. c #BA9268",
"/. c #AA8873",
"(. c #AE9078",
"). c #BA947B",
"_. c #BD8D70",
"`. c #C18D64",
"'. c #CB996D",
"]. c #C69A77",
"[. c #D69C77",
"{. c #D0A46A",
"}. c #CFA27A",
"|. c #D7A479",
" X c #9E8681",
".X c #9E9892",
"XX c #A48C86",
"oX c #BE9981",
"OX c #B0A490",
"+X c #BBB5B3",
"@X c #DCAF8A",
"#X c #D7B285",
"$X c #DBB98C",
"%X c #C9B299",
"&X c #CBB293",
"*X c #EEBF93",
"=X c #E5B38A",
"-X c #C4BFBD",
";X c #EBC18E",
":X c #F0C498",
">X c #D3C3AB",
",X c #E8C0A1",
"<X c #FBDBAA",
"1X c #EECFB2",
"2X c #FFE1AF",
/* pixels */
"  . X * / _ _ _ ` _ ` _ _ > : * : o 7 ( _ ' _ _ _ _ _ / * o * ' ",
"  . X - / _ ` ' ` ` ( { ( X.O.O.2.G [ X.{ ` _ ` ' ` _ / - X * ' ",
"  X & = * o % * * > [ $.{ M.C.B.XX$.2.2.X.> ) 9 * o o * & & O o ",
"  o 3 = & & ; ; : ) ,.N.X.Q. XD.XX2.F.F.=.{ %.[ ; & & & 3 3 o   ",
". 1 z h r r ) ..{ $.D.Q.=.Q.Q.B.F.B.Q.Q.N.G.D.=.) e 7 7 h z 3   ",
"  2 r.e.s e $.2.$.2.F.Q.=.A.G.N.C.2.A.A.2.Q.D.,.=.o...h e.r.2   ",
"  # s f l U -.G.B.N.A.A.,.C.D.C.B.,.M.N.M.C.B.B.M.=.o.l f s 1   ",
"  @ 4 t k ..-.C.C.B.B.A.B.F.Q.C.V.B.B.B.C.B.M.B.B.-.O.H t 4 #   ",
"  @ 5 4 ) *.=.M.B.G. XC.2. XD.!.).G.Q.D.XXF.M.M.B.B.%.e 4 5 @   ",
"  1 t y j $.B.G.B.D.XXB.z.C./.*X*XH.Q.G.C.XXC.N.G.C.=.j k t 1   ",
"  1 t s z j =.F.F.A.B.Z.@X!.:X:X*XH.B.oXV.V.z.G.F.-.o.z s t 1   ",
"  1 t s z ..O.,.B.-.Z.=X:X<X<X<X2X<X(.].@XZ.H.H.2.$.o.z s t 1   ",
"  1 t s j o.z.H.H.H.Z.v.:.&X2X2X2X2XoX:.C.&X[.H.H.c.O.j i t 1   ",
"  1 t s l U f.c.c.`.%X.XH >X2X2X2X2X>X1.OX>X[.n.x.g...h s t 1   ",
"  1 y s z h I Y @._.1X+X8 &X2X2X2X2X%X&.>X1X'.d.I I h g s t 1   ",
"  1 t s f i q H o.n.,X%XZ ^.2X2X2X2X^.P %X,Xn.J V 6 k 6.s y 1   ",
"  1 t s f i U ..Y i.'.|.s.{.2X2X2X2X{.s.|.].~ c x V u f s t 1   ",
"  1 t s f s a L H J k.~.'.;X<X<X<X<X;X{.`.i.c n n x C f s t 1   ",
"  1 t s f s g P R Q A h.W.}.#X#X#X|.}.^.~ A M M n x C g s t 1   ",
"  1 t s f s Z p.W.R.L.A Q ! a.! a.a.i.Q N M P.U.L.n c u s t 1   ",
"  1 y s f s K b.$X#XR.m P.Y.T.T.T.T.Y.J.b b L.I.M x C f s t 1   ",
"  1 t s f i L W.|.W.F B m J.P.P.P.U.J.J.B S m.'.E.W u f s t 1   ",
"  1 y s g i R (.}.l.S ] | ;.4.4.4.4.;.| ] S R _.).@.u f s t 1   ",
"  1 t s g L :.!.Z.T 0 [ | >.1.5.5.3.>.| | G D v.!.l.E g s y 1   ",
"  1 t s s L l.x.#.H , { O.:.3. XS.3.*.+.[ , F #.x.l.t.d s t 1   ",
"  1 t y g L #.t.t.I , ] { &.>.1.1.&.&.} ] , I t.t.p.E d i t 1   ",
"  1 t t y a K K K a < ]  . .] ] ]  . . .] < k P K K a y 4 t 1   ",
"  1 t t s d d d d i q G 1.&. .0 0  .%.>.G q l d l d d i t t 1   ",
"  # t s e.e.0.w.w.u.q.J V.,.:.p p *.z.N.J q.u.w.w.0.e.6.s t #   ",
"  @ t s s 6.y.7.8.9.7.T x.g.@.F p @.j.x.W Z 9.9.7.y.6.s i t #   ",
"  1 f 6.6.6.e / ^ ^ 9 T l.h.Y 8 9 Y h.l.L < ^ ^ / e 6.6.6.f 1   ",
"  # i s 5 $ = ^ ^ ^ ^ 9 D D 8 ^ ^ 8 D D 7 ^ ^ ^ / = $ 5 s i #   "
};
