/* XPM */
static char *result[] = {
/* columns rows colors chars-per-pixel */
"32 32 25 1 ",
"  c #40264D",
". c #4D3B39",
"X c #644574",
"o c #705654",
"O c #8F7772",
"+ c #563767",
"@ c #B7A099",
"# c #125600",
"$ c #217500",
"% c #9D704C",
"& c #534721",
"* c #509C00",
"= c #87CB00",
"- c #EEBE93",
"; c #FFE1AF",
": c #444444",
"> c #D7906E",
", c #545456",
"< c #9F8781",
"1 c #6D6D6E",
"2 c #8B5E4A",
"3 c #A77E5D",
"4 c #B89D92",
"5 c #323234",
"6 c #77584A",
/* pixels */
"            .  . .              ",
"   XXXXXXXX.o..O.o.X.XXXXXXXX   ",
"  X+++++.+.oO.O@oOo.o.+++++++X  ",
" X+++++.O.oO@oO@O@O.Oo.+.+++++X ",
" X+++..o@OoO@OOOO@Oo@Oo.o.++++X ",
" X++.O.oOOOOOOOOOOOO@Oo.O.++++X ",
" X++.oOOoOOoOOoOoOOOOOoO@o.+++X ",
" X+.O.O@OoOOooOoooOOOOOOOo.+++X ",
" X+.oOoOoOoOOo@OoOO@oOoOo.O.++X ",
" X+.oOOoo@OoOO@OOO@OOOooOOo.++X ",
" X++.oOooO@OOOOOoOOOOo@oOo.+++X ",
" X++.ooOOoOOOoOoOooOo@Oooo.+++X ",
" X+.oOOoOOoOOooOOoOOOOooOOo.++X ",
" X++.oOOoOOOOOoOOOOOOooOOo.+++X ",
" X+++.oOooOoOOOOOoOOOoOOo.++++X ",
" X++++.ooooooOoOOooOoooo.+++++X ",
" X+++.ooooooooooOoooooooo.++++X ",
" X++#$....oo.ooooo.oo....+++++X ",
" X+++#$#$$..o.ooo.o..$%&++++++X ",
" X++++#*=*$#.$...$.$*-;%&+++++X ",
" X++++&#$$#$*=====*$:>-;&+++++X ",
" X+++&%->&:,$*****$,:&>-%&++++X ",
" X+++&<-%&:,1111111,:&%-<&++++X ",
" X++&234&56:,11111,:65&432&+++X ",
" X++&332&5:622222226:5&233&+++X ",
" X++&22&+5:,111,111,:5+&22&+++X ",
" X+++&&++5:,,:::::,,:5++&&++++X ",
" X++++++++511,555,115+++++++++X ",
" XX+++++++&44<&+&<44&+++++++++X ",
"  XX++++++&236&+&632&++++++++X  ",
"   XXXXXXX&332&X&233&XXXXXXXX   ",
"           &&&   &&&            "
};
