/* XPM */
static char *result[] = {
/* columns rows colors chars-per-pixel */
"32 32 33 1 ",
"  c #40264D",
". c #4D3B39",
"X c #644574",
"o c #705654",
"O c #8F7772",
"+ c #563767",
"@ c #B7A099",
"# c #EEBE93",
"$ c #FFE1AF",
"% c #D7906E",
"& c #534721",
"* c gray85",
"= c #2E1E22",
"- c #D9D9DD",
"; c #9D704C",
": c gray95",
"> c #928A8C",
", c white",
"< c #5C2E00",
"1 c #964F00",
"2 c #125600",
"3 c #509C00",
"4 c #217500",
"5 c #87CB00",
"6 c #9F8781",
"7 c #8B5E4A",
"8 c #323234",
"9 c #444444",
"0 c #545456",
"q c #6D6D6E",
"w c #B89D92",
"e c #77584A",
"r c #A77E5D",
/* pixels */
"             . .  .             ",
"   XXXXXXX.X.o.O..o.XXXXXXXXX   ",
"  X++++++.o.oOo@O.Oo.+.++++++X  ",
" X++++.+.oO.O@O@Oo@Oo.O.++++++X ",
" X+++.o.oO@oO@oOOO@Oo@Oo..++++X ",
" X+++.O.oO@oOOoOOoOOO@Oo.O.+++X ",
" X++.o@OoOOooOOOooOooOoOOo.+++X ",
" X++.oOOOoOOO@OoOOoOOoOOO.O.++X ",
" X+.O.oOo@Oo@Oo#oO@O@OooOOo.++X ",
" X+.oOOOo@OoOo###o@oO@oOOOo.++X ",
" X++.oO@oOo#o####oO#oOo@Oo.+++X ",
" X++.ooOoo##$$$$$$o##o%Ooo.+++X ",
" X+.oo%O%o&&&$$$$$&&&#%O%oo.++X ",
" X++.o%o%#*=-$$$$$-=*#%o%o.+++X ",
" X+++.&.;#:=>$$$$$>=:#;.&.++++X ",
" X++++.&;#,<<$$$$$<<,#;&.+++++X ",
" X+++.oo&%#11$$$$$11#%&22.++++X ",
" X++++..&&%#$$$$$$$#%&2332++++X ",
" X+++++&;4&;%#####%;&44222++++X ",
" X++++&#$43&&&&&&&&&435332++++X ",
" X+++&6$#%43355555342435542+++X ",
" X++&776;894433333449&%#;&++++X ",
" X++&77&&890qqqqqqq09&ww#&++++X ",
" X+++&&++8e90qqqqq09e&rr6&++++X ",
" X+++++++89e77>>>77e9&rr7&++++X ",
" X+++++++89900qqq0099&77e&++++X ",
" X+++++++89qq099990998&&&+++++X ",
" X++++++++9qq08889998+++++++++X ",
" XX+++++++ew7w&+&e77&+++++++++X ",
"  XX++++++&7rre++&&&+++++++++X  ",
"   XXXXXXX&rrreXXXXXXXXXXXXXX   ",
"                                "
};
