/* XPM */
static char *result[] = {
/* columns rows colors chars-per-pixel */
"32 32 161 2 ",
"   c #010000",
".  c #0B0A05",
"X  c #0A0A0B",
"o  c #091A02",
"O  c #19150A",
"+  c #1E1A0C",
"@  c #171311",
"#  c #1D1616",
"$  c #1C1C1E",
"%  c #241F0E",
"&  c #221A19",
"*  c #362C16",
"=  c #322C19",
"-  c #3A2E19",
";  c #3A3217",
":  c #3D321A",
">  c #202021",
",  c #2D2A25",
"<  c #2A2A2B",
"1  c #2F2423",
"2  c #3D352E",
"3  c #373739",
"4  c #3C3C3D",
"5  c #43351E",
"6  c #42381B",
"7  c #483921",
"8  c #403B2C",
"9  c #483D34",
"0  c #4F3E3E",
"q  c #493735",
"w  c #523F3B",
"e  c #155700",
"r  c #145800",
"t  c #275911",
"y  c #3B591E",
"u  c #186200",
"i  c #1E6A00",
"p  c #2F6B04",
"a  c #277300",
"s  c #2C7C01",
"d  c #2F6013",
"f  c #2C6318",
"g  c #37423E",
"h  c #356224",
"j  c #417114",
"k  c #46442F",
"l  c #4E4428",
"z  c #554823",
"x  c #584925",
"c  c #52482E",
"v  c #594A2F",
"b  c #465825",
"n  c #5A5E2B",
"m  c #4A4435",
"M  c #494539",
"N  c #54423E",
"B  c #594A37",
"V  c #684F30",
"C  c #675230",
"Z  c #6B5432",
"A  c #6E5938",
"S  c #785D3B",
"D  c #576127",
"F  c #426C32",
"G  c #567927",
"H  c #60622D",
"J  c #40264D",
"K  c #453E45",
"L  c #4C3F45",
"P  c #423D4E",
"I  c #563767",
"U  c #4F4248",
"Y  c #4C4746",
"T  c #534242",
"R  c #5A4643",
"E  c #5E4B47",
"W  c #53444A",
"Q  c #514D4C",
"!  c #5F4A48",
"~  c #5B514E",
"^  c #4F4F51",
"/  c #574A53",
"(  c #554C5D",
")  c #584C56",
"_  c #525253",
"`  c #5B5B5C",
"'  c #604947",
"]  c #624D49",
"[  c #66514D",
"{  c #6A524E",
"}  c #7F5E46",
"|  c #755F42",
" . c #6D5452",
".. c #6E5953",
"X. c #705654",
"o. c #725956",
"O. c #755C59",
"+. c #7A6247",
"@. c #76625D",
"#. c #7A635D",
"$. c #564E62",
"%. c #575067",
"&. c #5F5F60",
"*. c #575168",
"=. c #58526A",
"-. c #644574",
";. c #666667",
":. c #6C6C6D",
">. c #7E6562",
",. c #83623D",
"<. c #815E43",
"1. c #82644B",
"2. c #8D624D",
"3. c #886846",
"4. c #916F4E",
"5. c #846556",
"6. c #976C52",
"7. c #9F7558",
"8. c #9E7457",
"9. c #A77D5D",
"0. c #806763",
"q. c #836A66",
"w. c #866D69",
"e. c #886F6B",
"r. c #8A726D",
"t. c #8B7A6C",
"y. c #8E7671",
"u. c #8F7872",
"i. c #917A74",
"p. c #947E79",
"a. c #A57E64",
"s. c #3C8206",
"d. c #3F8905",
"f. c #57A300",
"g. c #58A100",
"h. c #6EB500",
"j. c #75BC00",
"k. c #568728",
"l. c #5A8A28",
"z. c #6A8231",
"x. c #7C9535",
"c. c #9B837E",
"v. c #A78563",
"b. c #B2956A",
"n. c #C48E69",
"m. c #C19776",
"M. c #C69B79",
"N. c #D59D77",
"B. c #D8A17A",
"V. c #7A7290",
"C. c #9F8782",
"Z. c #A48C86",
"A. c #A7928A",
"S. c #AB938D",
"D. c #B99680",
"F. c #BD9982",
"G. c #AE9690",
"H. c #B69F98",
"J. c #B39B95",
"K. c #DCB78A",
"L. c #EFC195",
/* pixels */
"J J J J J J J J J J J J J J J J J J J J J J J J J J J J J J J J ",
"J J J -.-.-.-.V.V.V.V.V.V.V.V.V.V.V.V.V.V.V.V.V.V.-.-.-.-.J J J ",
"J J -.I I V.V.=.=.=.=.=.L $.%.w =.w =.=.%.=.=.=.=.V.V.I I -.J J ",
"J -.I I V.=.=.=.%.=.=.L  .L w i.w X.L ( W %.=.=.=.=.=.V.I I -.J ",
"J -.I V.=.=.=.%./ / L  .y.E e.H.O.i.X.L X.R %.%.%.=.=.=.V.I -.J ",
"J -.V.=.=.%.( L @.@. .e.G.q.y.G.i.J.q.{ y. .L L L %.=.=.=.V.-.J ",
"J V.=.=.%.) R E y.c.q.e.Z.i.i.y.i.S.r.e.S.q.' ] ' K =.=.=.=.V.J ",
"V.=.*.*.$.R >...q.e.y.w.y.y.q.y.q.y.y.p.Z.q. .q.#.L P =.=.=.=.V.",
"V.=.=.%.L  .o.p.i.0.y.q.q.q.>.q.X.q.y.y.y.e.w.c.e.R P P %.=.=.V.",
"V.=.=.$.R #.O.y.i.0.>.e.q.o.C.0.o.q.i.c.q.e.w.w. .{ 2 P =.=.=.V.",
"V.=.=.$.T #.e.0.O.i.y.>.y.q.J.y.q.y.Z.c.w.w.O.0.#.#.R P =.=.=.V.",
"V.=.=.%.L ] q.q.o.e.Z.y.e.y.C.y.>.i.C.y.e.e.e.0.q.[ 1 P =.=.=.V.",
"V.=.=.=.P R o.>.w.>.y.i.y.>.y.>.q.#.>.e.w.C.e.O.O.R @ P =.=.=.V.",
"V.=.=.$.L X.e.0.q.y.>.w.y.O.O.e.y.o.e.y.y.r.O.>.e.O.q P =.=.=.V.",
"V.=.=.*.L E >.y.>.q.y.y.y.r.O.y.y.r.y.y.w.o.#.y.0.' & P =.=.=.V.",
"V.=.=.=.P # E >.>.o.q.>.e.y.r.y.y.O.y.y.w.#.y.0.' &   P =.=.=.V.",
"V.=.=.=.P   # E X.X.X.X.o.e.O.r.y.X.O.e.X.X.X.' &     P =.=.=.V.",
"V.=.=.=.P @ R ..X.X.X.X.X.X.X.X.y.X.X.o.X.X.X. .R #   P =.=.=.V.",
"V.=.=.=.g r d 9 9 m ] { R { X.X.X.{ L  .[ m w q &     P =.=.=.V.",
"V.=.=.%.P o r i a s y 8 ' m { { { m ] 9 b z.3.*       P =.=.=.V.",
"V.=.=.=.P   o p g.f.s u y s H H n s.b s x.L.K.3.%     P =.=.=.V.",
"V.=.=.=.P . - H G j t f d.j.j.j.j.j.d.h [ b.L.b.- X   P =.=.=.V.",
"V.=.=.=.P O A M.B.,.m ^ F l.l.l.l.l.F ^ M ,.N.M.S +   P =.=.=.V.",
"V.=.=.=.P ; +.F.v.v N Q &.:.:.:.:.:...^ N v v.D.5.: . P =.=.=.V.",
"V.=.=.=.K C 8.a.+.8 T ] { #.#.#.#.#...! Y 2 | a.8.Z O P =.=.=.V.",
"V.=.=.=.K C 6.1.5 , g ~ @.#.#...#.#.@.~ M , 5 } 6.Z O P =.=.=.V.",
"V.=.=.=.P * V 5 . $ 4 Q ` _ _ Y _ _ ` ^ 4 > . 7 C - . P =.=.=.V.",
"V.=.=.=.P . + .   X < ` ;._ g 3 g _ ;.` < X   . O .   P =.=.=.V.",
"V.=.=.=.P           = t.A.c.v X l c.Z.c.=             P =.=.=.V.",
"V.=.=.=.P           * +.a.5.x   z 5.9.+.;             P =.=.=.V.",
"V.=.=.=.P           * 3.9.2.z   z 2.9.4.;             P =.=.=.V.",
"V.=.=.*.P             ; z z .   . z z ;               P =.=.=.V."
};
