/* XPM */
static char *result[] = {
/* columns rows colors chars-per-pixel */
"32 32 33 1 ",
"  c #40264D",
". c #4D3B39",
"X c #644574",
"o c #705654",
"O c #8F7772",
"+ c #563767",
"@ c #B7A099",
"# c #EEBE93",
"$ c #FFE1AF",
"% c #D7906E",
"& c #534721",
"* c gray85",
"= c #2E1E22",
"- c #D9D9DD",
"; c #9D704C",
": c gray95",
"> c #928A8C",
", c white",
"< c #5C2E00",
"1 c #964F00",
"2 c #125600",
"3 c #509C00",
"4 c #217500",
"5 c #87CB00",
"6 c #444444",
"7 c #9F8781",
"8 c #545456",
"9 c #6D6D6E",
"0 c #8B5E4A",
"q c #A77E5D",
"w c #B89D92",
"e c #323234",
"r c #77584A",
/* pixels */
"             . .  .             ",
"   XXXXXXX.X.o.O..o.XXXXXXXXX   ",
"  X++++++.o.oOo@O.Oo.+.++++++X  ",
" X++++.+.oO.O@O@Oo@Oo.O.++++++X ",
" X+++.o.oO@oO@oOOO@Oo@Oo..++++X ",
" X+++.O.oO@oOOoOOoOOO@Oo.O.+++X ",
" X++.o@OoOOooOOOooOooOoOOo.+++X ",
" X++.oOOOoOOO@OoOOoOOoOOO.O.++X ",
" X+.O.oOo@Oo@Oo#oO@O@OooOOo.++X ",
" X+.oOOOo@OoOo###o@oO@oOOOo.++X ",
" X++.oO@oOo#o####oO#oOo@Oo.+++X ",
" X++.ooOoo##$$$$$$o##o%Ooo.+++X ",
" X+.oo%O%o&&&$$$$$&&&#%O%oo.++X ",
" X++.o%o%#*=-$$$$$-=*#%o%o.+++X ",
" X+++.&.;#:=>$$$$$>=:#;.&.++++X ",
" X++++.&;#,<<$$$$$<<,#;&.+++++X ",
" X+++.oo&%#11$$$$$11#%&22.++++X ",
" X++++..&&%#$$$$$$$#%&2342++++X ",
" X+++++&;4&;%#####%;&44222++++X ",
" X++++&;$43&&&&&&&&&4355342+++X ",
" X++++&$#%4335555534243342++++X ",
" X+++&;#%&64433333446&%#;&++++X ",
" X+++&7#;&68899999886&;#7&++++X ",
" X++&0qw&er689999986re&wq0&+++X ",
" X++&qq0&e6r00>>>00r6e&0qq&+++X ",
" X++&00&+e66889998866e+&00&+++X ",
" X+++&&++e68866666886e++&&++++X ",
" X++++++++e898eee898e+++++++++X ",
" XX+++++++&707&+&707&+++++++++X ",
"  XX++++++&00r&+&r00&++++++++X  ",
"   XXXXXXX&qq0&X&0qq&XXXXXXXX   ",
"           &&&   &&&            "
};
