/* XPM */
static char *result[] = {
/* columns rows colors chars-per-pixel */
"32 32 33 1 ",
"  c #40264D",
". c #4D3B39",
"X c #644574",
"o c #705654",
"O c #8F7772",
"+ c #563767",
"@ c #B7A099",
"# c #9D704C",
"$ c #D7906E",
"% c #EEBE93",
"& c #534721",
"* c #FFE1AF",
"= c #D9D9DD",
"- c #2E1E22",
"; c gray85",
": c #928A8C",
"> c gray95",
", c #5C2E00",
"< c white",
"1 c #964F00",
"2 c #125600",
"3 c #509C00",
"4 c #217500",
"5 c #87CB00",
"6 c #6D6D6E",
"7 c #545456",
"8 c #323234",
"9 c #444444",
"0 c #B89D92",
"q c #8B5E4A",
"w c #A77E5D",
"e c #9F8781",
"r c #77584A",
/* pixels */
"         ...  ....   ..         ",
"   XXXXX.oOo..oOOo...oo.XXXXX   ",
"  X++++.o@O.oO@Oo.oOOOO.+++++X  ",
" X+++++.O@oOO@Oo.oooOOOo.+++++X ",
" X++++.oOOoOOOoO@@OOoOOo.+++++X ",
" X+++.ooooOoOoOOOOOooooo..++++X ",
" X++.oOoOOoOOoooOoO@@OOo.o.+++X ",
" X++.oOoOOOOOOoOoOOOOOo.OO.+++X ",
" X++.OO#oO@oO@oOOoOOooOOOo.+++X ",
" X++.oO$%o@ooO@o@OoOOOoOoo.+++X ",
" X+++.o%%oOo%oOoO@oO@@Ooo.++++X ",
" X++++&%%%o***oooOoOOoo..+++++X ",
" X++++&%%*&&&*OOoo.oooooo.++++X ",
" X++++&%**=-;*OOo%*oOOOo.+++++X ",
" X++++&%**:->**O%#*oOOo..+++++X ",
" X++++&$**,,<**O*#%oOo.oo.++++X ",
" X++++&#%*11***O%$&ooooo.+++++X ",
" X+++++&$%*****%$$#ooo..++++++X ",
" X++++++&#$$%%%$$#oo..++++++++X ",
" X++++++2&&&&&&&&3..342+++++++X ",
" X++++++2435553342353342++++++X ",
" X++++++24433367*$24422+++++++X ",
" X+++++++89666&**%&22+++++++++X ",
" X+++++++8976&00%$&+++++++++++X ",
" X+++++++8:q&wwqe#&+++++++++++X ",
" X+++++++897&wwwq&8+++++++++++X ",
" X+++++++899&qqq&78+++++++++++X ",
" X++++++&qe99&&&er&+++++++++++X ",
" XX+++++&qqq&80qwwr&++++++++++X ",
"  XX+++++&&&++&wwwq&+++++++++X  ",
"   XXXXXXXXXXXX&&&&XXXXXXXXXX   ",
"                                "
};
