/* XPM */
static char *result[] = {
/* columns rows colors chars-per-pixel */
"32 32 62 1 ",
"  c #2B1836",
". c #2C1936",
"X c #2C1937",
"o c #2E1937",
"O c #2E1938",
"+ c #311B3B",
"@ c #311C3D",
"# c #321C3E",
"$ c #2E2235",
"% c #2F2437",
"& c #302438",
"* c #322638",
"= c #322639",
"- c #332739",
"; c #33273A",
": c #362A3E",
"> c #361F41",
", c #361F42",
"< c #362042",
"1 c #382B40",
"2 c #3C2E45",
"3 c #3B2248",
"4 c #3D244A",
"5 c #3D244B",
"6 c #40264D",
"7 c #413546",
"8 c #433749",
"9 c #43334C",
"0 c #45354E",
"q c #44384A",
"w c #45394B",
"e c #463B4C",
"r c #473C4D",
"t c #473751",
"y c #4C3F53",
"u c #4D4054",
"i c #4E4154",
"p c #4E4155",
"a c #54465B",
"s c #55465B",
"d c #55475C",
"f c #5A4C63",
"g c #5B4D63",
"h c #5C4C63",
"j c #5F4F66",
"k c #5F4F67",
"l c #5B4B6E",
"z c #5E4E71",
"x c #62526A",
"c c #604F72",
"v c #645376",
"b c #6A577A",
"n c #6B597B",
"m c #6C5A7C",
"M c #6D5A7D",
"N c #6D5B7D",
"B c #746082",
"V c #766284",
"C c #7D688A",
"Z c #7E698B",
"A c #836C90",
"S c #877193",
/* pixels */
"6St66666666666666666666666666666",
"6SSSSS6xxxxxxx6SSSSSS6SSSSSS6SSS",
"6SSxxx6xxxxxxx6xxxxxx6xxxxxx6xxx",
"6Stttt6xxxxxxx6tttttt6xxxxxx6ttt",
"66t66666666666666666666666666666",
"6SS6xxxxxx6SSSSSS6xxxxxx6SSSSSS6",
"6Sx6xxxxxx6xxxxxx6xxxxxx6xxxxxx6",
"6St6xxxxxx6xxxxxx6xxxxxx6tttttt6",
"66t66666666666666666666666666666",
"6SSSSS6xxxxxxx6xxxxxx6SSSSSS6SSS",
"6SSxxx6xxxxxxx6xxxxxx6xxxxxx6xxx",
"6Stttt6xxxxxxx6tttttt6xxxxxx6ttt",
"66t66666666666666666666666666666",
"6SS6xxxxxx6SSSSSS6xxxxxx6SSSSSS6",
"5Aj4jjkkkk5kkkkkk5kkkkkk5kkkkkk5",
"5A04jjkkkk5kkkkkk5kkkkkk50000005",
"55044455555555555555555555555555",
"3ZCCZh3ZZZZZZZ3gggggg3ZZZZZZ3ggg",
"3ZCfhh3ggggggg3gggggg3gggggg3ggg",
"3Zffhh399999993gggggg39999993ggg",
"<<2>,,<<<<<<<<<<<<<<<<<<<<<<<<<<",
"<VB>aassds<VVVVVV<VVVVVV<ssssss<",
"<VB>aassds<ssssss<ssssss<ssssss<",
"#Ny+uuippp@111111@pppppp@pppppp@",
"##:+@@@@@@@@@@@@@@@@@@@@@@@@@@@@",
"#Nbnmm@MMMMMMM@pppppp@MMMMMM@ppp",
"OvcweeXrrrrrrrXrrrrrrXrrrrrrXrrr",
"Ovq*=-X;;;;;;;XrrrrrrX;;;;;;X;;;",
"OO& ..XoooXXXXXXXXXXXXXXXXXXXXXX",
"zzllllllll$llllll$llllll$llllll$",
"z877777777$777777$777777$777777$",
"z%$$$$$$$$$$$$$$$$$$$$$$$$$$$$$$"
};
