/* XPM */
static char *result[] = {
/* columns rows colors chars-per-pixel */
"32 32 20 1 ",
"  c #40264D",
". c #877193",
"X c #62526A",
"o c #473751",
"O c #563767",
"+ c #644574",
"@ c #5F4F67",
"# c #3D244B",
"$ c #45354E",
"% c #5B4D63",
"& c #362042",
"* c #55465B",
"= c #4E4155",
"- c #311C3D",
"; c #473C4D",
": c #33273A",
"> c #2C1937",
", c #5B4B6E",
"< c #2E2235",
"1 c #413546",
/* pixels */
"                                ",
"...... XXXXXXX ...... ...... ...",
"XXXXXX XXXXXXX XXXXXX XXXXXX XXX",
"XXXXXX XXXXXXX oooooo XXXXXX ooo",
"                                ",
"OOOOOOOOOOOOOOOOOOOOOOOOO+OOO.. ",
"OOOOOOOOOOOOOOOOOOOOOOOO+++OOXX ",
"OOOOOOOOOOOOOOOOOOOOOOOOO+OOOoo ",
"OOOOOOOOOOOOOOOOOOOOOOOOOOOOO   ",
"OOOOOOOOOOOOOOOOOOOOOOOOOOOOO...",
"OOOOOOOOOOOOOOOOOOOOOOOOOOOOOXXX",
"OOOOOOOOOOOOOOOOOOOOOOOOOOOOOooo",
"OOOOOOOOOOOOOOOOOOOOOOOOOOOOO   ",
"OOOOOOOOOOOOOOOOOOOOOOOOOOOOO.. ",
"OOOOOOOOOOOOOOOOOOOOOOOOOOOOO@@#",
"OOOOOOOOOOOOOOOOOOOOOOOOOOOOO$$#",
"OOOOOOOOOOOOOOOOOOOOOOOOOOOOO###",
"OOOOOOOOOOOOOOOOOOOOOOOOOOOOO%%%",
"OOOOOOOOOOOOOOOOOOOOOOOOOOOOO%%%",
"OOOOOOOOOOOOOOOOOOOOOOOOOOOOO%%%",
"OOOOOOOOOOOOOOOOOOOOOOOOOOOOO&&&",
"OOOOOOOOOOOOOOOOOOOOOOOOOOOOO**&",
"OOOOOOOOOOOOOOOOOOOOOOOOOOOOO**&",
"OOOOOOOOOOOOOOOOOOOOOOOOOOOOO==-",
"OOOOOOOOOOOOOOOOOOOOOOOOOOOOO---",
"OOOOOOOOOOOOOOOOOOOOOOOOOOOOO===",
"OOOOOOOOOOOOOOOOOOOOOOOOOOOOO;;;",
"OOOOOOOOOOOOOOOOOOOOOOOOOOOOO:::",
"OOOOOOOOOOOOOOOOOOOOOOOOOOOOO>>>",
",,,<,,,,,,<,,,,,,<,,,,,,<,,,,,,<",
"111<111111<111111<111111<111111<",
"<<<<<<<<<<<<<<<<<<<<<<<<<<<<<<<<"
};
