/* XPM */
static char *result[] = {
/* columns rows colors chars-per-pixel */
"32 32 46 1 ",
"  c #947013",
". c #947113",
"X c #957215",
"o c #977417",
"O c #987517",
"+ c #9C7818",
"@ c #9E7A1A",
"# c #A07B1A",
"$ c #A47F1C",
"% c #9F7D23",
"& c #A9831E",
"* c #A8821F",
"= c #A9841F",
"- c #A58327",
"; c #AC8621",
": c #AF8926",
"> c #A28028",
", c #A8852A",
"< c #B08A22",
"1 c #B48C22",
"2 c #B38C24",
"3 c #B89026",
"4 c #B99228",
"5 c #BF972B",
"6 c #A98831",
"7 c #B08D30",
"8 c #BE9936",
"9 c #B29138",
"0 c #B8973F",
"q c #C49B2D",
"w c #C69D2E",
"e c #C99F30",
"r c #CDA53A",
"t c #B39441",
"y c #B79949",
"u c #BB9D4D",
"i c #BDA055",
"p c #CDAA4B",
"a c #CFAF58",
"s c #D4B560",
"d c #D1B56B",
"f c #D8BB6D",
"g c #D2B770",
"h c #D7BF81",
"j c #DCC68A",
"k c None",
/* pixels */
"kkkkkkkkkkkkkkkkkkkkkkkkkkkkkkkk",
"kkkkkkkkkkkkkkkkkkkkkkkkkkkkkkkk",
"kkkkkkkkkkkkkkkkkkkkkkkkkkkkkkkk",
"kkkkkkkkkkkkkkkkkkkkkkkkkkkkkkkk",
"kkkkkkkkkkkkkkkkkkkkkkkkkkkkkkkk",
"kkkkkkkkkkkkkkXXXXXkkkkkkkkkkkkk",
"kkkkkkkkkkkkkO2#-0okkkkkkkkkkkkk",
"kkkkkkkkkkkk@=3<8st>kkkkkkkkkkkk",
"kkkkkkkkkkkk$w#3rpj6kkkkkkkkkkkk",
"kkkkkkkkkkkk$w#44,f6kkkkkkkkkkkk",
"kkkkkkkkkk.;3*4e3%fa7.kkkkkkkkkk",
"kkkkkkkkkk <5+q59yys0 kkkkkkkkkk",
"kkkkkkkkkk <5+q&9g%ay kkkkkkkkkk",
"kkkkkkkkkk <5+q&th%gi kkkkkkkkkk",
"kkkkkkkkkk <5+q&yj%du kkkkkkkkkk",
"kkkkkkkkkk <5+q&yj%du kkkkkkkkkk",
"kkkkkkkkkk <5+q&yj%du kkkkkkkkkk",
"kkkkkkkkkk <5+q&yj%gu kkkkkkkkkk",
"kkkkkkkkkk <5+q&9d%hi kkkkkkkkkk",
"kkkkkkkkkk <5+q&9s%gi kkkkkkkkkk",
"kkkkkkkkkk <5+q8900s0 kkkkkkkkkk",
"kkkkkkkkkk.;3*4r8$ap7.kkkkkkkkkk",
"kkkkkkkkkkkk$w#45:p-kkkkkkkkkkkk",
"kkkkkkkkkkkk$w#3raf,kkkkkkkkkkkk",
"kkkkkkkkkkkk@=318st>kkkkkkkkkkkk",
"kkkkkkkkkkkkkO2$,0okkkkkkkkkkkkk",
"kkkkkkkkkkkkkkXXXXXkkkkkkkkkkkkk",
"kkkkkkkkkkkkkkkkkkkkkkkkkkkkkkkk",
"kkkkkkkkkkkkkkkkkkkkkkkkkkkkkkkk",
"kkkkkkkkkkkkkkkkkkkkkkkkkkkkkkkk",
"kkkkkkkkkkkkkkkkkkkkkkkkkkkkkkkk",
"kkkkkkkkkkkkkkkkkkkkkkkkkkkkkkkk"
};
