/* XPM */
static char *result[] = {
/* columns rows colors chars-per-pixel */
"32 32 31 1 ",
"  c #947114",
". c #957215",
"X c #977316",
"o c #997516",
"O c #977418",
"+ c #9E7A1B",
"@ c #9E7C21",
"# c #A5801E",
"$ c #AC8620",
"% c #B08923",
"& c #B08A22",
"* c #B48E2A",
"= c #B89026",
"- c #BF972A",
"; c #B19037",
": c #B5943D",
"> c #C2992D",
", c #C69D2E",
"< c #C99F30",
"1 c #B59748",
"2 c #B5994D",
"3 c #C09E44",
"4 c #CEA945",
"5 c #C0A14E",
"6 c #CBAA52",
"7 c #D5B35A",
"8 c #D0B469",
"9 c #D6BB74",
"0 c #DBC487",
"q c #DECA94",
"w c None",
/* pixels */
"wwwwwwwwwwwwwwwwwwwwwwwwwwwwwwww",
"wwwwwwwwwwwwwwwwwwwwwwwwwwwwwwww",
"wwwwwwwwwwwwwwwwwwwwwwwwwwwwwwww",
"wwwwwwwwwwwwwwwwwwwwwwwwwwwwwwww",
"wwwwwwwwwwwwwwwwwwwwwwwwwwwwwwww",
"wwwwwwwwwwwww....Xwwwwwwwwwwwwww",
"wwwwwwwwwwwwwO:#+%Xwwwwwwwwwwwww",
"wwwwwwwwwwwwo%43*=#owwwwwwwwwwww",
"wwwwwwwwwwww#<,75+,#wwwwwwwwwwww",
"wwwwwwwwwwww#,#33+,#wwwwwwwwwwww",
"wwwwwwwwwwo$><+573#=$owwwwwwwwww",
"wwwwwwwwww &<*:166+-& wwwwwwwwww",
"wwwwwwwwww &-@9:;8+-& wwwwwwwwww",
"wwwwwwwwww &-@q210@-& wwwwwwwwww",
"wwwwwwwwww &-@012q@-& wwwwwwwwww",
"wwwwwwwwww &-@0110@-& wwwwwwwwww",
"wwwwwwwwww &-@q22q@-& wwwwwwwwww",
"wwwwwwwwww &-@q22q@-& wwwwwwwwww",
"wwwwwwwwww &-@q2;8+-& wwwwwwwwww",
"wwwwwwwwww &-@01;8+-& wwwwwwwwww",
"wwwwwwwwww &<*5280@-& wwwwwwwwww",
"wwwwwwwwwwo$><+508#=$owwwwwwwwww",
"wwwwwwwwwwww#,#55+,#wwwwwwwwwwww",
"wwwwwwwwwwww#<473+,#wwwwwwwwwwww",
"wwwwwwwwwwwwo%44>=#owwwwwwwwwwww",
"wwwwwwwwwwwwwO;&&%Xwwwwwwwwwwwww",
"wwwwwwwwwwwww....Xwwwwwwwwwwwwww",
"wwwwwwwwwwwwwwwwwwwwwwwwwwwwwwww",
"wwwwwwwwwwwwwwwwwwwwwwwwwwwwwwww",
"wwwwwwwwwwwwwwwwwwwwwwwwwwwwwwww",
"wwwwwwwwwwwwwwwwwwwwwwwwwwwwwwww",
"wwwwwwwwwwwwwwwwwwwwwwwwwwwwwwww"
};
