/* XPM */
static char *result[] = {
/* columns rows colors chars-per-pixel */
"32 32 25 1 ",
"  c #947012",
". c #947113",
"X c #947114",
"o c #957215",
"O c #9B791D",
"+ c #9C7A20",
"@ c #9D7C24",
"# c #A68323",
"$ c #B89128",
"% c #AD8B31",
"& c #AF913E",
"* c #BA9531",
"= c #BC9838",
"- c #BE9D42",
"; c #D5B14C",
": c #D9B65A",
"> c #D1B362",
", c #D7BA6C",
"< c #D7BD79",
"1 c #E1C579",
"2 c #DFC682",
"3 c #E0CB92",
"4 c #E2D2A6",
"5 c #E8DDC0",
"6 c None",
/* pixels */
"66666666666666666666666666666666",
"66666666666666666666666666666666",
"66666666666666666666666666666666",
"66666666666666666666666666666666",
"66666666666666666666666666666666",
"666666666666666ooo66666666666666",
"666666666666666X. 66666666666666",
"666666666666666#%&66666666666666",
"66666666666666o*13@6666666666666",
"66666666666666o*35@6666666666666",
"66666666666666o*15@6666666666666",
"66666666666666o*14@6666666666666",
"66666666666666o=14@6666666666666",
"66666666666666o=24@6666666666666",
"66666666666666o-23+6666666666666",
"66666666666666o=,2+6666666666666",
"66666666666666o$:<+6666666666666",
"66666666666666o$:<+6666666666666",
"66666666666666o=,<+6666666666666",
"66666666666666o$:,O6666666666666",
"66666666666666o$;>O6666666666666",
"66666666666666o$;>O6666666666666",
"66666666666666o*:,O6666666666666",
"66666666666666o*:,O6666666666666",
"666666666666666#%&66666666666666",
"666666666666666X. 66666666666666",
"666666666666666ooo66666666666666",
"66666666666666666666666666666666",
"66666666666666666666666666666666",
"66666666666666666666666666666666",
"66666666666666666666666666666666",
"66666666666666666666666666666666"
};
