/* XPM */
static char *result[] = {
/* columns rows colors chars-per-pixel */
"32 32 36 1 ",
"  c #926F11",
". c #927014",
"X c #957214",
"o c #9C7819",
"O c #9E7A1B",
"+ c #9F7C1D",
"@ c #A07C1B",
"# c #A98320",
"$ c #A88425",
"% c #A38228",
"& c #AC892D",
"* c #B18A23",
"= c #B68F26",
"- c #B99228",
"; c #BD9529",
": c #B69233",
"> c #BA9635",
", c #C0982C",
"< c #C59C2E",
"1 c #C39F3B",
"2 c #CCA231",
"3 c #CDA332",
"4 c #CEA432",
"5 c #D0A739",
"6 c #BC9C43",
"7 c #C6A243",
"8 c #CCA94C",
"9 c #D2AB40",
"0 c #D3AD48",
"q c #C2A350",
"w c #C6A95C",
"e c #D6B353",
"r c #D8B65B",
"t c #DBBC66",
"y c #E1C57A",
"u c None",
/* pixels */
"uuuuuuuuuuuuuuuuuuuuuuuuuuuuuuuu",
"uuuuuuuuuuuuuuuuuuuuuuuuuuuuuuuu",
"uuuuuuuuuuuuuuuuuuuuuuuuuuuuuuuu",
"uuuuuuuuuuuuuuuuuuuuuuuuuuuuuuuu",
"uuuuuuuuuuuuuuuuuuuuuuuuuuuuuuuu",
"uuuuuuuuuuuuuXXXXXXuuuuuuuuuuuuu",
"uuuuuuuuuuu.@===->:@ uuuuuuuuuuu",
"uuuuuuuuuu$#*344599:&$uuuuuuuuuu",
"uuuuuuuuu+,42<<<<<<0e7+uuuuuuuuu",
"uuuuuuuu+<23,OooooO,508+uuuuuuuu",
"uuuuuuu$,24-#;;;,11#>057$uuuuuuu",
"uuuuuu.#43-*=344599>:>9e& uuuuuu",
"uuuuuu@*2,#=43333330>&10:%uuuuuu",
"uuuuuX=3<O;33333333307O1r6Xuuuuu",
"uuuuuX=4<o;43333333307O7tqXuuuuu",
"uuuuuX=4<o;43333333207O8yqXuuuuu",
"uuuuuX=4<o;43333333307O8ywXuuuuu",
"uuuuuX=4<o;43333333307O8ywXuuuuu",
"uuuuuX=3<O;3333333330qO8ywXuuuuu",
"uuuuuu@*2,#=4333332e6&7e6%uuuuuu",
"uuuuuu.#43-*=3444501:>0t& uuuuuu",
"uuuuuuu$,24-#;;;;,7=,908$uuuuuuu",
"uuuuuuuu+<23,OooooO1908+uuuuuuuu",
"uuuuuuuuu+,42<<<<<70tw+uuuuuuuuu",
"uuuuuuuuuu$#*3449er:&$uuuuuuuuuu",
"uuuuuuuuuuu.@===:66% uuuuuuuuuuu",
"uuuuuuuuuuuuuXXXXXXuuuuuuuuuuuuu",
"uuuuuuuuuuuuuuuuuuuuuuuuuuuuuuuu",
"uuuuuuuuuuuuuuuuuuuuuuuuuuuuuuuu",
"uuuuuuuuuuuuuuuuuuuuuuuuuuuuuuuu",
"uuuuuuuuuuuuuuuuuuuuuuuuuuuuuuuu",
"uuuuuuuuuuuuuuuuuuuuuuuuuuuuuuuu"
};
