/* XPM */
static char *result[] = {
/* columns rows colors chars-per-pixel */
"32 32 57 1 ",
"  c #937114",
". c #957114",
"X c #957215",
"o c #967315",
"O c #9D7919",
"+ c #9E7A1A",
"@ c #A57F1B",
"# c #A17E1E",
"$ c #9F7D21",
"% c #9E7C22",
"& c #9F7C23",
"* c #A8831F",
"= c #A9831F",
"- c #A9841F",
"; c #AD861F",
": c #A38125",
"> c #A28027",
", c #AF8922",
"< c #A7872F",
"1 c #AC892C",
"2 c #B38D26",
"3 c #B89128",
"4 c #BE962A",
"5 c #AA8B3A",
"6 c #B29036",
"7 c #B99533",
"8 c #B59339",
"9 c #BC993A",
"0 c #C69D2E",
"q c #C39B32",
"w c #CBA130",
"e c #CDA332",
"r c #CFA638",
"t c #B29546",
"y c #B79843",
"u c #BE9F4A",
"i c #C3A042",
"p c #C8A64B",
"a c #CEAB4D",
"s c #D2AB42",
"d c #D5B04C",
"f c #C9A952",
"g c #C5A85A",
"h c #D6B253",
"j c #D8B65A",
"k c #C9AE67",
"l c #CFB56F",
"z c #D0B261",
"x c #D5B766",
"c c #D9B962",
"v c #DABC6A",
"b c #DBBF74",
"n c #DCC380",
"m c #E2CA8B",
"M c #E3CE97",
"N c #E7D6A9",
"B c None",
/* pixels */
"BBBBBBBBBBBBBBBBBBBBBBBBBBBBBBBB",
"BBBBBBBBBBBBBBBBBBBBBBBBBBBBBBBB",
"BBBBBBBBBBBBBBBBBBBBBBBBBBBBBBBB",
"BBBBBBBBBBBBBBBBBBBBBBBBBBBBBBBB",
"BBBBBBBBBBBBBBBBBBBBBBBBBBBBBBBB",
"BBBBBBBBBBBBXXXXXX.BBBBBBBBBBBBB",
"BBBBBBBBBBB;7uu>#9u:BBBBBBBBBBBB",
"BBBBBBBBBB-4sjcu6icy:BBBBBBBBBBB",
"BBBBBBBBB+qe000jg<pvu&BBBBBBBBBB",
"BBBBBBBBOqr3O@O4hl>icgXBBBBBBBBB",
"BBBBBBBBO043qfi,7cl6ifoBBBBBBBBB",
"BBBBBBB:2w,2rhc11cm<6a8%BBBBBBBB",
"BBBBBB =w4=3ercu6fm52dz$BBBBBBBB",
"BBBBBB =0O4eeeebk<M52dx$BBBBBBBB",
"BBBBBB =0O4eeeevg>v<2dx$BBBBBBBB",
"BBBBBB =0O4eeeeju>x<2dx$BBBBBBBB",
"BBBBBB =0O4eeeed9>b<2hb$BBBBBBBB",
"BBBBBB =0O4eeees7>n<2hn>BBBBBBBB",
"BBBBBB =0O4eeees7<N52jn>BBBBBBBB",
"BBBBBB =w4=3erbu,pN52jm>BBBBBBBB",
"BBBBBBB:2w@,rsmt1vM52au%BBBBBBBB",
"BBBBBBBBO0,,4izyunl6ifoBBBBBBBBB",
"BBBBBBBBOqw2OO$pbl>qckXBBBBBBBBB",
"BBBBBBBBB+4w00aml<pcu&BBBBBBBBBB",
"BBBBBBBBBB-3rdvgyivy:BBBBBBBBBBB",
"BBBBBBBBBBB*39u>#9u:BBBBBBBBBBBB",
"BBBBBBBBBBBBXXXXXX.BBBBBBBBBBBBB",
"BBBBBBBBBBBBBBBBBBBBBBBBBBBBBBBB",
"BBBBBBBBBBBBBBBBBBBBBBBBBBBBBBBB",
"BBBBBBBBBBBBBBBBBBBBBBBBBBBBBBBB",
"BBBBBBBBBBBBBBBBBBBBBBBBBBBBBBBB",
"BBBBBBBBBBBBBBBBBBBBBBBBBBBBBBBB"
};
