/* XPM */
static char *result[] = {
/* columns rows colors chars-per-pixel */
"32 32 48 1 ",
"  c #957111",
". c #957215",
"X c #967315",
"o c #997516",
"O c #9D7919",
"+ c #9F7C1E",
"@ c #A17B19",
"# c #A07C1A",
"$ c #A17C1B",
"% c #A27D1B",
"& c #A37E1C",
"* c #9F7D24",
"= c #A9831F",
"- c #A78324",
"; c #AE8821",
": c #AD8927",
"> c #B08A23",
", c #B18B24",
"< c #B58E26",
"1 c #B08C2D",
"2 c #B79027",
"3 c #BA9328",
"4 c #BF962A",
"5 c #AD8B30",
"6 c #AF8D32",
"7 c #B99536",
"8 c #BF9A33",
"9 c #C49B2D",
"0 c #C79E2F",
"q c #C39D39",
"w c #CBA130",
"e c #CDA332",
"r c #CEA433",
"t c #CBA43B",
"y c #CFA638",
"u c #B19241",
"i c #B79844",
"p c #C19F44",
"a c #D2AB42",
"s c #D5B04D",
"d c #C9A953",
"f c #D5B459",
"g c #CCB065",
"h c #CEB36E",
"j c #D8B963",
"k c #D9BE76",
"l c #DCC586",
"z c None",
/* pixels */
"zzzzzzzzzzzzzzzzzzzzzzzzzzzzzzzz",
"zzzzzzzzzzzzzzzzzzzzzzzzzzzzzzzz",
"zzzzzzzzzzzzzzzzzzzzzzzzzzzzzzzz",
"zzzzzzzzzzzzzzzzzzzzzzzzzzzzzzzz",
"zzzzzzzzzzzzzzzzzzzzzzzzzzzzzzzz",
"zzzzzzzzzzzzzo......zzzzzzzzzzzz",
"zzzzzzzzzzzz$<<##277:zzzzzzzzzzz",
"zzzzzzzzzzz$,w4;<yaa8-zzzzzzzzzz",
"zzzzzzzzzzo<w9&3w999tq+zzzzzzzzz",
"zzzzzzzzz.3w4%4w3OOO<yt+zzzzzzzz",
"zzzzzzzzzX43=4w<;4q8,,tOzzzzzzzz",
"zzzzzzzz@>0,%wr==raa,&t75zzzzzzz",
"zzzzzzzzO0r,&w9;,eea7;8j6 zzzzzz",
"zzzzzzzzO0r,&0#2eeeysp*j6 zzzzzz",
"zzzzzzzzO0r,&0O2reeesd*ku zzzzzz",
"zzzzzzzzO0r,&0O2reeefd*li zzzzzz",
"zzzzzzzz#0r,&0O2reeejg*li zzzzzz",
"zzzzzzzz=0r,&0O2reeejh*lu zzzzzz",
"zzzzzzzz;wr,&0#2eeeejh*lu zzzzzz",
"zzzzzzzz=wr,&w9;,ersp6qlu zzzzzz",
"zzzzzzzz@>0,%wr==rys6=jf5zzzzzzz",
"zzzzzzzzzX43=4w<;488,7k2zzzzzzzz",
"zzzzzzzzz.3w4%4w3OOO<ad+zzzzzzzz",
"zzzzzzzzzzo<w9&3w999ad+zzzzzzzzz",
"zzzzzzzzzzz$,w4;<rraq1zzzzzzzzzz",
"zzzzzzzzzzzz$<<##<<7:zzzzzzzzzzz",
"zzzzzzzzzzzzzo......zzzzzzzzzzzz",
"zzzzzzzzzzzzzzzzzzzzzzzzzzzzzzzz",
"zzzzzzzzzzzzzzzzzzzzzzzzzzzzzzzz",
"zzzzzzzzzzzzzzzzzzzzzzzzzzzzzzzz",
"zzzzzzzzzzzzzzzzzzzzzzzzzzzzzzzz",
"zzzzzzzzzzzzzzzzzzzzzzzzzzzzzzzz"
};
