/* XPM */
static char *result[] = {
/* columns rows colors chars-per-pixel */
"32 32 3 1 ",
"  c black",
". c white",
"X c None",
/* pixels */
"XXXXXXXXXXXXXXXXXXXXXXXXXXXXXXXX",
"XXXXXXXXXXXXXXXXXXXXXXXXXXXXXXXX",
"XXXXXXXXXXXXX..XX..XXXXXXXXXXXXX",
"XXXXXXXXXXXX.  ..  .XXXXXXXXXXXX",
"XXXXXXXXXXXX. .  . .XXXXXXXXXXXX",
"XXXXXXXXX...  ....  ...XXXXXXXXX",
"XXXXXXXX.    ......    .XXXXXXXX",
"XXXXXXXX. ... .  . ... .XXXXXXXX",
"XXXXXXX.   ..  ..  ..   .XXXXXXX",
"XXXXXXX. ... ...... ... .XXXXXXX",
"XXXXXXXX. .. ...... .. .XXXXXXXX",
"XXXXX...   .  ....  .   ...XXXXX",
"XXXX.    ..   .  .   ..    .XXXX",
"XXX.    ..     ..     ..    .XXX",
"XXX.   .....   ..   .....   .XXX",
"XXX.   .. .... .. .... ..   .XXX",
"XXX.    .  . ...... .  .    .XXX",
"XXX.    ..    .  .    ..    .XXX",
"XX.      .            .      .XX",
"XX.      .            .      .XX",
"XX.     ...          ...     .XX",
"XX.  ... ..          .. ...  .XX",
"XX. ..... .. .    . .. ..... .XX",
"XX. .  ... .......... ...  . .XX",
"XX. ...    ....  ....    ... .XX",
"XXX. ...    ..    ..    ... .XXX",
"XXX.                        .XXX",
"XXX.                        .XXX",
"XXX.                        .XXX",
"XXX. .  .  .        .  .  . .XXX",
"XXXX.       ........       .XXXX",
"XXXXX.......XXXXXXXX.......XXXXX"
};
