/* XPM */
static char *result[] = {
/* columns rows colors chars-per-pixel */
"32 32 3 1 ",
"  c black",
". c white",
"X c None",
/* pixels */
"XXXXXXXXXXXXXXXXXXXXXXXXXXXXXXXX",
"XXXXXXXXXXXXXXXXXXXXXXXXXXXXXXXX",
"XXXXXXXXXXXXXXXXXXXXXXXXXXXXXXXX",
"XXXXXXXXXXXXXXXXXXXXXXXXXXXXXXXX",
"XXXXXXXXXXXXXXXXXXXXXXXXXXXXXXXX",
"XXXXXXXXXXXXX..XX..XXXXXXXXXXXXX",
"XXXXXXXXXXXX.  ..  .XXXXXXXXXXXX",
"XXXXXXXXX.... .  . ....XXXXXXXXX",
"XXXXXXXX.     ....     .XXXXXXXX",
"XXXXXXXX. .. ...... .. .XXXXXXXX",
"XXXXXX..   .. .  . ..   ..XXXXXX",
"XXXXX.   ....  ..  ....   .XXXXX",
"XXXX.     ... .... ...     .XXXX",
"XXX.       ... .. ...       .XXX",
"XXX.       .   ..   .       .XXX",
"XX.       ...  ..  ...       .XX",
"XX.      ......  ......      .XX",
"XX.      .. . .... . ..      .XX",
"X.        ..        ..        .X",
"X.          . .  . .          .X",
"X.  ...     ........     ...  .X",
"X. .....     ..  ..     ..... .X",
"X. . ...                ... . .X",
"X. .. ...              ... .. .X",
"X. ...                    ... .X",
"XX. ...                  ... .XX",
"XXX.                        .XXX",
"XXX.                        .XXX",
"XXX.  .. ..          .. ..  .XXX",
"XXX. .  .  .  ....  .  .  . .XXX",
"XXXX.       ..XXXX..       .XXXX",
"XXXXX.......XXXXXXXX.......XXXXX"
};
