/* XPM */
static char *result[] = {
/* columns rows colors chars-per-pixel */
"32 32 3 1 ",
"  c black",
". c white",
"X c None",
/* pixels */
"XXXXXXXXXXXXXXXXXXXXXXXXXXXXXXXX",
"XXXXXXXXXXXXX..XX..XXXXXXXXXXXXX",
"XXXXXXXXXXXX.  ..  .XXXXXXXXXXXX",
"XXXXXXXXXXXX. .  . .XXXXXXXXXXXX",
"XXXXXXXXX...  ....  ...XXXXXXXXX",
"XXXXXXXX.    ......    .XXXXXXXX",
"XXXXXXXX. ... .  . ... .XXXXXXXX",
"XXXXXXX.   ..  ..  ..   .XXXXXXX",
"XXXXXXX. ... ...... ... .XXXXXXX",
"XXXXX..   .. ...... ..   ..XXXXX",
"XXXX.      .. .... ..      .XXXX",
"XXX.      .   .  .   .      .XXX",
"XX.     ....   ..   ....     .XX",
"XX.    ....... .. .......    .XX",
"X.      .. . ...... . ..      .X",
"X.       .    .  .    .       .X",
".       ...          ...       .",
".        ... .    . ...        .",
".          ..........          .",
".          ...    ...          .",
".  ...      ...  ...      ...  .",
". .....                  ..... .",
". . ...                  ... . .",
". .. ...                ... .. .",
". ...                      ... .",
"X. ...                    ... .X",
"XX.                          .XX",
"XXX.  .   .          .   .  .XXX",
"XXX. ... ...        ... ... .XXX",
"XXX. .  .  .  ....  .  .  . .XXX",
"XXXX.       ..XXXX..       .XXXX",
"XXXXX.......XXXXXXXX.......XXXXX"
};
