/* XPM */
static char *result[] = {
/* columns rows colors chars-per-pixel */
"32 32 11 1 ",
"  c black",
". c #222222",
"X c #323234",
"o c #400000",
"O c #5C0000",
"+ c #444444",
"@ c #545456",
"# c #646466",
"$ c #AD0000",
"% c red",
"& c None",
/* pixels */
"&&&&&&&&&&&&&&&&&&&&&&&&&&&&&&&&",
"&&&&&&&&&&&&&&&&.....&&&&&&&&&&&",
"&&&&&&&&&&&&&&..XXXXX..&&&&&&&&&",
"&&&&&&&&&&&&&.XX+++++XX.&&&&&&&&",
"&&&&&&&&&&&&.X+++@@@+++X.&&&&&&&",
"&&&&&&&&&&&.X++@@###@@++X.&&&&&&",
"&&&&&&&&&&.X++@@#####@@++X&&&&&&",
"&&&&&&&&&&.X+@@@@@@@@@@@+X.&&&&&",
"&&&&&&&&&.X+@++@@@@++XXXXX.&&&&&",
"&&&&&&&&&.++++@@+@+XX..XXXX.&&&&",
"&&&&&&&&.X+++@++++XX.       &&&&",
"&&&&&&&.XX+X+++XXXX. OOOo  o&&&&",
"&&&&&&&XXXXX+XX.XX. O$%$Oooo&&&&",
"&&&&&&.X.XX.XX..X.. O$%%$ooo&&&&",
"&&&&&&XX....X.....  oO$$Oooo&&&&",
"&&&&&.XXX.........   oOOoo o&&&&",
"&&&&&XXXX.X.X.....    ooo   &&&&",
"&&&&&XX+XXXXX.X....        .&&&&",
"&&&&.X++XXXXXX..X....    ...&&&&",
"&&&&X+++X+XXXX.XX..X........&&&&",
"&&&&++++++XXXXXXX.XXX.X..XX&&&&&",
"&&&+@+@+++X+XX+XXXXX+XXXXX+&&&&&",
"&&&@@@@+++++X+++XX+++X+XX++&&&&&",
"&&&@&@@++@++++++++++@+++++&&&&&&",
"&&&&&@@@@@++@++@+++@@+++@@&&&&&&",
"&&&&&&@@@@+@@+@@++@@@@+@@@&&&&&&",
"&&&&&&@@&@@@@@@@+@@@@@@@@&&&&&&&",
"&&&&&&&&&@@@@@@@@@@@@@@@@&&&&&&&",
"&&&&&&&&&&@@&@@@@@@@@@@@&&&&&&&&",
"&&&&&&&&&&&&&@@&@@@@@&@&&&&&&&&&",
"&&&&&&&&&&&&&&&&&@@@&&&&&&&&&&&&",
"&&&&&&&&&&&&&&&&&&&&&&&&&&&&&&&&"
};
