/* XPM */
static char *result[] = {
/* columns rows colors chars-per-pixel */
"32 32 3 1 ",
"  c #40264D",
". c #563767",
"X c #644574",
/* pixels */
"                                ",
"   XXXXXXXXXXXXXXXXXXXXXXXXXX   ",
"  X..........................X  ",
" X............................X ",
" X....X.......................X ",
" X...X X......................X ",
" X..X   X.....................X ",
" X...X X......................X ",
" X....X.......................X ",
" X............................X ",
" X...........................X  ",
" X...........................X  ",
" X...................X......X   ",
" X..................X X....X    ",
" X.................X   X..X     ",
" X................X     X.X     ",
" X.................X   X.X      ",
" X..................X X.X  XXXX ",
" X...................XXX  X...X ",
" X..................XX   X....X ",
" X.................XX  XX.....X ",
" X....X...........X   X.......X ",
" X...X X.........X  XX........X ",
" X....X.........X  X..........X ",
" X............XX   X..........X ",
" X.......XXXXX     XX.........X ",
" X....XXX      XXX  XXX.......X ",
" X..XX    XXXXX..X    XX......X ",
" XXX   XXX.......XXXX  XXXX...X ",
"  X  XX.............X     X..X  ",
"    XXXXXXXXXXXXXXXX       XX   ",
"                                "
};
