/* XPM */
static char *result[] = {
/* columns rows colors chars-per-pixel */
"32 32 23 1 ",
"  c #323234",
". c #4D3B39",
"X c #125600",
"o c #217500",
"O c #534721",
"+ c #444444",
"@ c #545456",
"# c #77584A",
"$ c #705654",
"% c #6D6D6E",
"& c #8B5E4A",
"* c #9D704C",
"= c #A77E5D",
"- c #8F7772",
"; c #509C00",
": c #87CB00",
"> c #D7906E",
", c #9F8781",
"< c #B89D92",
"1 c #B7A099",
"2 c #EEBE93",
"3 c #FFE1AF",
"4 c None",
/* pixels */
"444444444444.44.4.44444444444444",
"44444444444.$..-.$.4.44444444444",
"44444444.4.$-.-1$-$.$.4444444444",
"4444444.-.$-1$-1-1-.-$.4.4444444",
"44444..$1-$-1----1-$1-$.$.444444",
"4444.-.$------------1-$.-.444444",
"4444.$--$--$--$-$-----$-1$.44444",
"444.-.-1-$--$$-$$$-------$.44444",
"444.$-$-$-$--$1-$--1$-$-$.-.4444",
"444.$--$$1-$--1---1---$$--$.4444",
"4444.$-$$-1-----$----$1$-$.44444",
"4444.$$--$---$-$-$$-$1-$$$.44444",
"444.$--$--$--$$--$----$$--$.4444",
"4444.$--$-----$------$$--$.44444",
"44444.$-$$-$-----$---$--$.444444",
"444444.$$$$$$-$--$$-$$$$.4444444",
"44444.$$$$$$$$$$-$$$$$$$$.444444",
"4444X;....$$.$$$$$.$$....4444444",
"44444XXX:o..$.$$$.$..o*O44444444",
"444444Xo;;oX.o...o.o;23>O4444444",
"444444OXooXo;:::::;o+>33>O444444",
"44444O&,,O+@o;;;;;o@+O>3<,O44444",
"44444O&=& +@%%%%%%%@+O*<==&O4444",
"444444O&& #+@%%%%%@+# O&==&O4444",
"4444444OO +#&&&&&&&#+ 4O&&#O4444",
"444444444 +@%%%@%%%@+ 44OOO44444",
"444444444 +@%@++++@@+ 4444444444",
"4444444444+@%%   @@@ 44444444444",
"4444444444O,<<O4O&&&O44444444444",
"4444444444O&==#44OOO444444444444",
"4444444444O===#44444444444444444",
"44444444444444444444444444444444"
};
