/* XPM */
static char *result[] = {
/* columns rows colors chars-per-pixel */
"32 32 31 1 ",
"  c #2E1E22",
". c #323234",
"X c #5C2E00",
"o c #4D3B39",
"O c #125600",
"+ c #217500",
"@ c #534721",
"# c #444444",
"$ c #545456",
"% c #77584A",
"& c #705654",
"* c #6D6D6E",
"= c #964F00",
"- c #8B5E4A",
"; c #9D704C",
": c #A77E5D",
"> c #8F7772",
", c #509C00",
"< c #87CB00",
"1 c #D7906E",
"2 c #9F8781",
"3 c #928A8C",
"4 c #B89D92",
"5 c #B7A099",
"6 c #EEBE93",
"7 c #FFE1AF",
"8 c gray85",
"9 c #D9D9DD",
"0 c gray95",
"q c white",
"w c None",
/* pixels */
"wwwwwwwwwooowwoooowwwoowwwwwwwww",
"wwwwwwwwo&>&oo&>>&ooo&&owwwwwwww",
"wwwwwwwo&5>o&>5>&o&>>>>owwwwwwww",
"wwwwwwwo>5&>>5>&o&&&>>>&owwwwwww",
"wwwwwwo&>>&>>>&>55>>&>>&owwwwwww",
"wwwwwo&&&&>&>&>>>>>&&&&&oowwwwww",
"wwwwo&>&>>&>>&&&>&>55>>&o&owwwww",
"wwwwo&>&>>>>>>&>&>>>>>&o>>owwwww",
"wwwwo>>;&>5&>5&>>&>>&&>>>&owwwww",
"wwwwo&>16&5&&>5&5>&>>>&>&&owwwww",
"wwwwwo&66&>&6&>&>5&>55>&&owwwwww",
"wwwwww@666&777&&&>&>>&&oowwwwwww",
"wwwwww@667@@@7>>&&o&&&&&&owwwwww",
"wwwwww@6779 87>>&67&>>>&owwwwwww",
"wwwwww@6773 077>6;7&>>&oowwwwwww",
"wwwwww@177XXq77>7;6&>&o&&owwwwww",
"wwwwww@;67==777>61@&&&&&owwwwwww",
"wwwwwww@1677777611;&&&oowwwwwwww",
"wwwwwwww@;1166611;&&oo,Owwwwwwww",
"wwwwwwwwO@@@@@@@@+oo,,Owwwwwwwww",
"wwwwwwwwO+,<<<,,+O+,+Owwwwwwwwww",
"wwwwwwwwO++,,,+6776@wwwwwwwwwwww",
"wwwwwwwww.#****#7776@wwwwwwwwwww",
"wwwwwwwww.#$**$#@1442@wwwwwwwwww",
"wwwwwwwww.3------@:::-@wwwwwwwww",
"wwwwwwwww.$***$##@-::-@wwwwwwwww",
"wwwwwwwwww.**$$#.2@--@wwwwwwwwww",
"wwwwwwwww@-442#.2--@@wwwwwwwwwww",
"wwwwwwww@::--%@w@--@wwwwwwwwwwww",
"wwwwwwww@:::%@ww@@@wwwwwwwwwwwww",
"wwwwwwwww@@@@wwwwwwwwwwwwwwwwwww",
"wwwwwwwwwwwwwwwwwwwwwwwwwwwwwwww"
};
