/* XPM */
static char *result[] = {
/* columns rows colors chars-per-pixel */
"32 32 31 1 ",
"  c #2E1E22",
". c #323234",
"X c #5C2E00",
"o c #4D3B39",
"O c #125600",
"+ c #217500",
"@ c #534721",
"# c #444444",
"$ c #545456",
"% c #77584A",
"& c #705654",
"* c #6D6D6E",
"= c #964F00",
"- c #8B5E4A",
"; c #9D704C",
": c #A77E5D",
"> c #8F7772",
", c #509C00",
"< c #87CB00",
"1 c #D7906E",
"2 c #9F8781",
"3 c #928A8C",
"4 c #B89D92",
"5 c #B7A099",
"6 c #EEBE93",
"7 c #FFE1AF",
"8 c gray85",
"9 c #D9D9DD",
"0 c gray95",
"q c white",
"w c None",
/* pixels */
"wwwwwwwwwwwwwowowwowwwwwwwwwwwww",
"wwwwwwwwwwowo&o>oo&owwwwwwwwwwww",
"wwwwwwwwwo&o&>&5>o>&owowwwwwwwww",
"wwwwwwowo&>o>5>5>&5>&o>owwwwwwww",
"wwwwwo&o&>5&>5&>>>5>&5>&oowwwwww",
"wwwwwo>o&>5&>>&>>&>>>5>&o>owwwww",
"wwwwo&5>&>>&&>>>&&>&&>&>>&owwwww",
"wwwwo&>>>&>>>5>&>>&>>&>>>o>owwww",
"wwwo>o&>&5>&5>&6&>5>5>&&>>&owwww",
"wwwo&>>>&5>&>&666&5&>5&>>>&owwww",
"wwwwo&>5&>&6&6666&>6&>&5>&owwwww",
"wwwwo&&>&&66777777&66&1>&&owwwww",
"wwwo&&1>1&@@@77777@@@61>1&&owwww",
"wwwwo&1&168 9777779 861&1&owwwww",
"wwwwwo@o;60 3777773 06;o@owwwwww",
"wwwwwwo@;6qXX77777XXq6;@owwwwwww",
"wwwwwo&&@16==77777==61@OOowwwwww",
"wwwwwwoo@@16777777761@O,,Owwwwww",
"wwwwwww@;+@;1666661;@++OOOwwwwww",
"wwwwww@67+,@@@@@@@@@+,<,,Owwwwww",
"wwwww@2761+,,<<<<<,+O+,<<+Owwwww",
"wwww@--2;.#++,,,,,++#@16;@wwwwww",
"wwww@--@@.#$*******$#@446@wwwwww",
"wwwww@@ww.%#$*****$#%@::2@wwwwww",
"wwwwwwwww.#%--333--%#@::-@wwwwww",
"wwwwwwwww.##$$***$$##@--%@wwwwww",
"wwwwwwwww.#**$####$##.@@@wwwwwww",
"wwwwwwwwww#**$...###.wwwwwwwwwww",
"wwwwwwwwww%4-4@w@%--@wwwwwwwwwww",
"wwwwwwwwww@-::%ww@@@wwwwwwwwwwww",
"wwwwwwwwww@:::%wwwwwwwwwwwwwwwww",
"wwwwwwwwwwwwwwwwwwwwwwwwwwwwwwww"
};
