/* XPM */
static char *result[] = {
/* columns rows colors chars-per-pixel */
"32 32 31 1 ",
"  c #2E1E22",
". c #323234",
"X c #5C2E00",
"o c #4D3B39",
"O c #125600",
"+ c #217500",
"@ c #534721",
"# c #444444",
"$ c #545456",
"% c #77584A",
"& c #705654",
"* c #6D6D6E",
"= c #964F00",
"- c #8B5E4A",
"; c #9D704C",
": c #A77E5D",
"> c #8F7772",
", c #509C00",
"< c #87CB00",
"1 c #D7906E",
"2 c #9F8781",
"3 c #928A8C",
"4 c #B89D92",
"5 c #B7A099",
"6 c #EEBE93",
"7 c #FFE1AF",
"8 c gray85",
"9 c #D9D9DD",
"0 c gray95",
"q c white",
"w c None",
/* pixels */
"wwwwwwwwoowwwoooowwooowwwwwwwwww",
"wwwwwwwo&&ooo&>>&oo&>&owwwwwwwww",
"wwwwwwwo>>>>&o&>5>&o>5&owwwwwwww",
"wwwwwwo&>>>&&&o&>5>>&5>owwwwwwww",
"wwwwwwo&>>&>>55>&>>>&>>&owwwwwww",
"wwwwwoo&&&&&>>>>>&>&>&&&&owwwwww",
"wwwwo&o&>>55>&>&&&>>&>>&>&owwwww",
"wwwwo>>o&>>>>>&>&>>>>>>&>&owwwww",
"wwwwo&>>>&&>>&>>&5>&5>&;>>owwwww",
"wwwwo&&>&>>>&>5&5>&&5&61>&owwwww",
"wwwwwo&&>55>&5>&>&6&>&66&owwwwww",
"wwwwwwoo&&>>&>&&&777&666@wwwwwww",
"wwwwwo&&&&&&o&&>>7@@@766@wwwwwww",
"wwwwwwo&>>>&76&>>78 9776@wwwwwww",
"wwwwwwoo&>>&7;6>770 3776@wwwwwww",
"wwwwwo&&o&>&6;7>77qXX771@wwwwwww",
"wwwwwwo&&&&&@16>777==76;@wwwwwww",
"wwwwwwwoo&&&;1167777761@wwwwwwww",
"wwwwwwwwOoo&&;1166611;@wwwwwwwww",
"wwwwwwwwwO+oo@@@@@@@@@Owwwwwwwww",
"wwwwwwwwwwOO@++,,<<<,+Owwwwwwwww",
"wwwwwwwwwww@6776+,,,++Owwwwwwwww",
"wwwwwwwwww@6777#****#.wwwwwwwwww",
"wwwwwwwww@2441@#$**$#.wwwwwwwwww",
"wwwwwwww@-:::@------3.wwwwwwwwww",
"wwwwwwww@-::-@##$***$.wwwwwwwwww",
"wwwwwwwww@--@2.#$$**.wwwwwwwwwww",
"wwwwwwwwww@@--2.#244-@wwwwwwwwww",
"wwwwwwwwwww@--@w@%--::@wwwwwwwww",
"wwwwwwwwwwww@@@ww@%:::@wwwwwwwww",
"wwwwwwwwwwwwwwwwww@@@@wwwwwwwwww",
"wwwwwwwwwwwwwwwwwwwwwwwwwwwwwwww"
};
