/* XPM */
static char *result[] = {
/* columns rows colors chars-per-pixel */
"32 32 146 2 ",
"   c #0A0B0D",
".  c #0A0C0D",
"X  c #0B0C0D",
"o  c #0C0D0E",
"O  c #16181B",
"+  c #17191C",
"@  c #171A1C",
"#  c #181A1D",
"$  c #1D1E1F",
"%  c #1A1D20",
"&  c #1B1D20",
"*  c #1A1D21",
"=  c #1B1E21",
"-  c #1D1F21",
";  c #1D1F22",
":  c #1D1F23",
">  c #2E1E22",
",  c #1F2021",
"<  c #1D2022",
"1  c #1E2123",
"2  c #202225",
"3  c #222325",
"4  c #212327",
"5  c #212427",
"6  c #242527",
"7  c #222428",
"8  c #232428",
"9  c #222528",
"0  c #232529",
"q  c #232629",
"w  c #242628",
"e  c #242629",
"r  c #24262A",
"t  c #24272A",
"y  c #25272A",
"u  c #25272B",
"i  c #26272B",
"p  c #25282B",
"a  c #26282C",
"s  c #282A2E",
"d  c #282B2E",
"f  c #292B2E",
"g  c #292B2F",
"h  c #292C2F",
"j  c #2A2C30",
"k  c #2B2C31",
"l  c #2B2D31",
"z  c #2A2E30",
"x  c #2C2E31",
"c  c #2D2F31",
"v  c #2D2F32",
"b  c #2E2F34",
"n  c #2E3034",
"m  c #2F3034",
"M  c #303135",
"N  c #323234",
"B  c #313136",
"V  c #303236",
"C  c #313236",
"Z  c #313336",
"A  c #313337",
"S  c #323237",
"D  c #323337",
"F  c #323437",
"G  c #333338",
"H  c #313438",
"J  c #333438",
"K  c #333439",
"L  c #323539",
"P  c #343439",
"I  c #34363A",
"U  c #35363A",
"Y  c #35373B",
"T  c #36363B",
"R  c #35393B",
"E  c #36383C",
"W  c #37383C",
"Q  c #36393C",
"!  c #37393D",
"~  c #38393D",
"^  c #383A3D",
"/  c #393A3E",
"(  c #3D3D3E",
")  c #5C2E00",
"_  c #4D3B39",
"`  c #125600",
"'  c #217500",
"]  c #534721",
"[  c #3A3B40",
"{  c #3B3C40",
"}  c #3B3D41",
"|  c #3B3E41",
" . c #3C3D41",
".. c #3C3E42",
"X. c #3C3F42",
"o. c #3C3E43",
"O. c #3E3E43",
"+. c #3E3F44",
"@. c #404146",
"#. c #414247",
"$. c #424347",
"%. c #444444",
"&. c #424348",
"*. c #424448",
"=. c #424548",
"-. c #434449",
";. c #444549",
":. c #44464A",
">. c #45474B",
",. c #45474C",
"<. c #46484C",
"1. c #46484D",
"2. c #47494E",
"3. c #484A4D",
"4. c #484B4D",
"5. c #4A4B4E",
"6. c #4A4C4E",
"7. c #4A4C4F",
"8. c #494B50",
"9. c #4B4D50",
"0. c #4D4F54",
"q. c #545456",
"w. c #55575A",
"e. c #77584A",
"r. c #705654",
"t. c #6D6D6E",
"y. c #964F00",
"u. c #8B5E4A",
"i. c #9D704C",
"p. c #A77E5D",
"a. c #8F7772",
"s. c #509C00",
"d. c #87CB00",
"f. c #D7906E",
"g. c #868889",
"h. c #9F8781",
"j. c #928A8C",
"k. c #B89D92",
"l. c #B7A099",
"z. c #EEBE93",
"x. c #FFE1AF",
"c. c gray85",
"v. c #D9D9DD",
"b. c gray95",
"n. c white",
"m. c None",
/* pixels */
"m.m.m.m.m.m.m.m.m.m.m.m.m._ 6 _ 3 ( _ m.m.m.m.m.m.m.m.m.m.m.m.m.",
"m.m.m.m.m.m.m.m.m.m._ =._ r._ a._ _ r._ m.m.m.m.m.m.m.m.m.m.m.m.",
"m.m.m.m.m.m.m.m.m._ r._ r.a.r.l.a._ a.r._ F _ m.m.m.m.m.m.m.m.m.",
"m.m.m.m.m.m._ m._ r.a._ a.l.a.l.a.r.l.a.r._ a._ m.m.m.m.m.m.m.m.",
"m.m.m.m.m._ r._ r.a.l.r.a.l.r.a.a.a.l.a.r.l.a.r._ _ m.m.m.m.m.m.",
"m.m.m.m.m._ a._ r.a.l.r.a.a.r.a.a.r.a.a.a.l.a.r._ a._ m.m.m.m.m.",
"m.m.m.m._ r.l.a.r.a.a.r.r.a.a.a.r.r.a.r.r.a.r.a.a.r._ m.m.m.m.m.",
"m.m.m.m._ r.a.a.a.r.a.a.a.l.a.r.a.a.r.a.a.r.a.a.a._ a._ m.m.m.m.",
"m.m.m._ a._ r.a.r.l.a.r.l.a.r.z.r.a.l.a.l.a.r.r.a.a.r._ g.m.m.m.",
"m.m.m._ r.a.a.a.r.l.a.r.a.r.z.z.z.r.l.r.a.l.r.a.a.a.r._ 9.m.m.m.",
"m.m.m.4 _ r.a.l.r.a.r.z.r.z.z.z.z.r.a.z.r.a.r.l.a.r._ B 6.m.m.m.",
"m.m.m.= _ r.r.a.r.r.z.z.x.x.x.x.x.x.r.z.z.r.f.a.r.r._ r 4.m.m.m.",
"m.m.m._ r.r.f.a.f.r.] ] ] x.x.x.x.x.] ] ] z.f.a.f.r.r._ 9.m.m.m.",
"m.m.m.u _ r.f.r.f.z.c.> v.x.x.x.x.x.v.> c.z.f.r.f.r._ ~ 7.m.m.m.",
"m.m.m.7 k _ ] _ i.z.b.> j.x.x.x.x.x.j.> b.z.i._ ] _ ;.G 7.m.m.m.",
"m.m.m.4 m e _ ] i.z.n.) ) x.x.x.x.x.) ) n.z.i.] _ n [ b 5.m.m.m.",
"m.m.m.* j _ r.r.] f.z.y.y.x.x.x.x.x.y.y.z.f.] ` ` _ C 0 3.m.m.m.",
"m.m.m.l I 4 _ _ ] ] f.z.x.x.x.x.x.x.x.z.f.] ` s.' ` g H 7.m.m.m.",
"m.m.m.i &.+.O ] i.' ] i.f.z.z.z.z.z.f.i.] ' ' ` ` ` 2.s 3.m.m.m.",
"m.m.m.7  .>.] i.x.' s.] ] ] ] ] ] ] ] ] ' s.d.d.s.' ` D 7.m.m.m.",
"m.m.m.4 P / ] x.z.f.' s.s.d.d.d.d.d.s.' ` ' s.s.' ` ~ U 7.m.m.m.",
"m.m.m.% q ] i.z.f.] %.' ' s.s.s.s.s.' ' %.] f.z.i.] a 9 3.m.m.m.",
"m.m.m.t #.] h.z.i.] %.q.q.t.t.t.t.t.q.q.%.] i.z.h.] <.W 7.m.m.m.",
"m.m.m.8 ] u.p.k.] N e.%.q.t.t.t.t.t.q.%.e.N ] k.p.u.] J 7.m.m.m.",
"m.m.m.8 ] p.p.u.] N %.e.u.u.j.j.j.u.u.e.%.N ] u.p.p.] m 7.m.m.m.",
"m.m.m.p ] u.u.] ! N %.%.q.q.t.t.t.q.q.%.%.N E ] u.u.] K 7.m.m.m.",
"m.m.m.% 5 ] ] o Q N %.q.q.%.%.%.%.%.q.q.%.N :.1 ] ] 5 2 3.m.m.m.",
"m.m.m.y $.:.@ o A &.N q.t.q.N N N q.t.q.N 8.,.1 . L 1.! 7.m.m.m.",
"m.m.m.8 J *.# o V #.] h.u.h.] #.] h.u.h.] -.o.< X Y :.J 7.m.m.m.",
"m.m.m.& i { + o V #.] u.u.e.] &.] e.u.u.] #...; . Z O.S 7.m.m.m.",
"m.m.m.: M / O o V @.] p.p.u.] 0.] u.p.p.] @.} -   s T U 7.m.m.m.",
"m.m.m.f x v w , ^ X.X.] ] ] z n d ] ] ] R X.| c $ h x v w.m.m.m."
};
