/* XPM */
static char *result[] = {
/* columns rows colors chars-per-pixel */
"32 32 160 2 ",
"   c #0B0C0E",
".  c #16181B",
"X  c #1B1C1E",
"o  c #171618",
"O  c #201B1B",
"+  c #232014",
"@  c #2B281B",
"#  c #3C2C19",
"$  c #1B1E21",
"%  c #281F21",
"&  c #1E2022",
"*  c #222326",
"=  c #242629",
"-  c #26282C",
";  c #2A2A2E",
":  c #2B2926",
">  c #322C2E",
",  c #392F2F",
"<  c #3A362D",
"1  c #303F2F",
"2  c #2C2E31",
"3  c #342F32",
"4  c #2E3134",
"5  c #323235",
"6  c #3B3334",
"7  c #3B3A33",
"8  c #34353A",
"9  c #3A3639",
"0  c #37383C",
"q  c #3A3A3D",
"w  c #453C24",
"e  c #493C2B",
"r  c #443E28",
"t  c #543B2E",
"y  c #453D32",
"u  c #4C3C3B",
"i  c #443A3A",
"p  c #165B02",
"a  c #19470F",
"s  c #28510D",
"d  c #2C421B",
"f  c #1C6B00",
"g  c #1F6106",
"h  c #216900",
"j  c #32660B",
"k  c #217500",
"l  c #317C00",
"z  c #2B4620",
"x  c #484027",
"c  c #4B442C",
"v  c #534721",
"b  c #52422C",
"n  c #5B4D34",
"m  c #534639",
"M  c #464238",
"N  c #6C552F",
"B  c #6A5433",
"V  c #725836",
"C  c #78563C",
"Z  c #7F5F3B",
"A  c #73583D",
"S  c #664D34",
"D  c #3C3E42",
"F  c #403D40",
"G  c #3F4044",
"H  c #424245",
"J  c #444549",
"K  c #46484D",
"L  c #4A4B4E",
"P  c #544443",
"I  c #594442",
"U  c #5C4845",
"Y  c #5A4C49",
"T  c #554B46",
"R  c #4B4D50",
"E  c #535355",
"W  c #55575A",
"Q  c #5B5C5E",
"!  c #5F5457",
"~  c #644E4B",
"^  c #665148",
"/  c #6A524C",
"(  c #665046",
")  c #7B5B4E",
"_  c #785D46",
"`  c #6C5553",
"'  c #6D5B56",
"]  c #705654",
"[  c #725C59",
"{  c #735A57",
"}  c #73635B",
"|  c #7A625E",
" . c #5E5F60",
".. c #6D6D6E",
"X. c #786D69",
"o. c #7E6662",
"O. c #797778",
"+. c #834400",
"@. c #83633F",
"#. c #AC783A",
"$. c #856145",
"%. c #876F47",
"&. c #9D704C",
"*. c #8B6352",
"=. c #946B52",
"-. c #926C5C",
";. c #80785E",
":. c #9E7357",
">. c #A2765A",
",. c #816864",
"<. c #856C68",
"1. c #886F6B",
"2. c #867261",
"3. c #89716C",
"4. c #847069",
"5. c #9A7969",
"6. c #937469",
"7. c #8F7772",
"8. c #867673",
"9. c #927A75",
"0. c #967E79",
"q. c #A0786A",
"w. c #B57D65",
"e. c #318200",
"r. c #408F00",
"t. c #51800B",
"y. c #519C00",
"u. c #63AD00",
"i. c #87CB00",
"p. c #9B837E",
"a. c #B98867",
"s. c #A88570",
"d. c #A08472",
"f. c #AA977A",
"g. c #D7906E",
"h. c #D19962",
"j. c #C29D79",
"k. c #DF9F7A",
"l. c #C68D69",
"z. c #D3A47B",
"x. c #D4A168",
"c. c #868082",
"v. c #868889",
"b. c #9E8781",
"n. c #A68F89",
"m. c #A28A84",
"M. c #AA928C",
"N. c #B7A099",
"B. c #CAAA84",
"V. c #D4AC8D",
"C. c #E9B58C",
"Z. c #EEBE93",
"A. c #E8C188",
"S. c #F4CA9C",
"D. c #D6CABC",
"F. c #F4D4B7",
"G. c #FFE1AF",
"H. c #E1E1E1",
"J. c #F6F6F6",
"K. c None",
/* pixels */
"K.K.K.K.K.K.K.K.K.K.K.K.K.K.* * * D K.K.K.K.K.K.K.K.K.K.K.K.K.K.",
"K.K.K.K.K.K.K.K.K.K.K.J 2 2 K K K F * 5 K.K.K.K.K.K.K.K.K.K.K.K.",
"K.K.K.K.K.K.K.K.K.E 2 J H 4 0 D D 2 0 K 8 4 K.K.K.K.K.K.K.K.K.K.",
"K.K.K.K.K.K.K.K.D 4 5 0 ; - , 3 > $ 6 8 D 2 0 K K.K.K.K.K.K.K.K.",
"K.K.K.K.K.K.K.q F F 3 I O ~ ] ' [ I ` ~ : 0 H F G K.K.K.K.K.K.K.",
"K.K.K.K.K.Q - 9 9 : I | u <.7.7.p.` <.<.I : ~ 9 2 8 K.K.K.K.K.K.",
"K.K.K.K. .H H u y i | p.I p.n.9.p.,.m.p.` [ 7.u 9 H 8 K.K.K.K.K.",
"K.K.K.K.8 D F ` U ~ 7.N.] p.0.| 7.<.b.p.| N.7.~ m P 8 D K.K.K.K.",
"K.K.K.W 2 9 F 9.3.{ 9.b.] ,.3.3.,.] <.,.{ m.| ,.o.` 3 D v.K.K.K.",
"K.K.K.; D 3 ~ 6.9.1.[ 7.<.9.m.3.,.<.,.,.<.| <.7.o.~ P F R K.K.K.",
"K.K.K.* D U ] ] 1.,.m.7.| n.6.6.6.1.0.0.M.<.{ <.1.| U 9 L K.K.K.",
"K.K.K.$ , ~ { 7.7.| N.7.` <.5.Z.Z.5.m.1.9.N.] 7.7.<.P 3 K K.K.K.",
"K.K.K.2 0 3 ( ,.M.1.7.` Z.5.Z.Z.Z.5.<.B.] 7.] M.<.~ 5 D R K.K.K.",
"K.K.K.- H q u ] <.| ` S.S.F.G.G.F.G.s.j.Z.] g.,.] / F q R K.K.K.",
"K.K.K.* 3 F ] w.q.w.q.2.w f.G.G.G.G.f.n ;.Z.g.q.w.` P 9 L K.K.K.",
"K.K.K.* 2 2 u =.) >.Z.H.% D.G.G.G.G.D.` H.Z.l.) =.I q 4 L K.K.K.",
"K.K.K.$ 2 5 * e b $.A.J.# f.G.G.G.G.n.t J.Z.&.t w 6 4 & R K.K.K.",
"K.K.K.2 8 * O m ^ N k.F.N #.G.G.G.G.#.+.F.k.N s d > 2 4 R K.K.K.",
"K.K.K.- H D X y I b @.k.h.k.G.G.G.G.A.x.z.@.s l s d K ; R K.K.K.",
"K.K.K.* D K . . c V j @.h.k.S.S.S.S.C.l.@.j f f f a G 4 R K.K.K.",
"K.K.K.* 8 0 . @ V j.k t.N Z %.%.%.%.Z V j e.u.u.l p 1 0 R K.K.K.",
"K.K.K.$ = - o # B.S.g.k y.u.i.i.i.i.u.e.p e.y.e.f a - * L K.K.K.",
"K.K.K.- H J @ @.z.z.v H k e.y.y.y.y.e.k G v g.z.$.x K 0 R K.K.K.",
"K.K.K.* G K @ -.V.a.v J W Q ........ .W H v &.V.2.w D 8 R K.K.K.",
"K.K.K.* D y B >.s.A 5 ( T ' X.O.O.X.' Y ^ 5 v s.>._ < 4 R K.K.K.",
"K.K.K.- 0 7 B :.$.n 5 H ^ ) } p.c.o._ / H 5 c $.>.$.< 5 L K.K.K.",
"K.K.K.$ * : b C n L 5 H L E E  ...R E L H 5 K c C S : * L K.K.K.",
"K.K.K.- J J X + 5 J D 0 E  .J 7 7 J Q Q 9 H K & + 7 K 0 L K.K.K.",
"K.K.K.* 5 J X   8 G G e 8.;.} M c } ,.4.x J G &   0 J 8 L K.K.K.",
"K.K.K.$ - q .   4 H J v -.*._ c c _ *.-.v G D &   5 D 5 R K.K.K.",
"K.K.K.& 5 9 .   2 G H v :.=.A c c A =.:.v G D X   - 8 8 L K.K.K.",
"K.K.K.; 4 2 = * D D D 9 v v r 4 - r v v 7 G D 4 & ; 4 4 W K.K.K."
};
