/* XPM */
static char *result[] = {
/* columns rows colors chars-per-pixel */
"32 32 35 1 ",
"  c #0B0C0D",
". c #0E0F10",
"X c #0F1012",
"o c #121415",
"O c #141619",
"+ c #17191B",
"@ c #191B1D",
"# c #1C1E21",
"$ c #1E2123",
"% c #212326",
"& c #242529",
"* c #26282C",
"= c #282A2E",
"- c #2C2E31",
"; c #2D3134",
": c #313236",
"> c #343539",
", c #37393D",
"< c #393A3E",
"1 c #3C3E42",
"2 c #3F4145",
"3 c #414247",
"4 c #434549",
"5 c #46494D",
"6 c #494B4E",
"7 c #4C4E53",
"8 c #4F5156",
"9 c #4F5258",
"0 c #505257",
"q c #53555A",
"w c #575A5F",
"e c #585A5D",
"r c #5C5E60",
"t c #868889",
"y c None",
/* pixels */
"yyyyyyyyyyyyyy&%%<yyyyyyyyyyyyyy",
"yyyyyyyyyyy4=-5562%>yyyyyyyyyyyy",
"yyyyyyyyy0-44;>1<:>5>>yyyyyyyyyy",
"yyyyyyyy<;>>=&#%%@=:<;>4yyyyyyyy",
"yyyyyyy<42&+       .@>423yyyyyyy",
"yyyyye*>,%..%&***%=@ @>>=>yyyyyy",
"yyyyr33=$.*>3444444<=OO=>3>yyyyy",
"yyyy:11=o&27880088065>O@,:>1yyyy",
"yyye-:;oo1007970000005* *>=<tyyy",
"yyy=2=#.*10q7557880707,@o%>17yyy",
"yyy%11+ ,51174334547772# ;3:6yyy",
"yyy#-<+ ,75117753233531# -:*6yyy",
"yyy-,*O ,88741757773331$ %-<6yyy",
"yyy*3>+ ,80074,,3459041$ =3,6yyy",
"yyy&-,+.,00000771111187$ >5>6yyy",
"yyy%-*o :457000097511,># ;<:6yyy",
"yyy#-;O ;33577789978751# -:&5yyy",
"yyy->%O.:33344377700975$.#=:7yyy",
"yyy*31+ :33333233400qr7$ ,5-5yyy",
"yyy%15+ :3334348q9rr711# -1:7yyy",
"yyy%:1O.:345qqq21>,,111# *<>6yyy",
"yyy#&&O 1907,,,11131675$ $=%5yyy",
"yyy*35+ ->,,4447q999007# :5,6yyy",
"yyy%15+.>55588809000777# =2>6yyy",
"yyy&<2+ ,80000008886463# %-;7yyy",
"yyy&,:+ ,8000005554483,# =-:7yyy",
"yyy#%%o ,88886432346324% #%%5yyy",
"yyy*34@.;34243433464164% :5,6yyy",
"yyy&>4@ ;4444242374163<$ >4>6yyy",
"yyy@*<@ :22424248225431$ :2>7yyy",
"yyy%:<O ;2222328226533<# =>>6yyy",
"yyy==-&%<12<;-=;*;<;,31-#=--eyyy"
};
