/* XPM */
static char *result[] = {
/* columns rows colors chars-per-pixel */
"32 32 38 1 ",
"  c #40264D",
". c #877193",
"X c #62526A",
"o c #473751",
"O c #563767",
"+ c #5F4F67",
"@ c #5F4F66",
"# c #45354E",
"$ c #3D244A",
"% c #3D244B",
"& c #5B4D63",
"* c #5A4C63",
"= c #644574",
"- c #3B2346",
"; c #362042",
": c #361F41",
"> c #766284",
", c #55465B",
"< c #4E4155",
"1 c #311C3D",
"2 c #311B3B",
"3 c #301B3A",
"4 c #4C4053",
"5 c #4C3F52",
"6 c #4D4054",
"7 c #4E4154",
"8 c #473C4D",
"9 c #45394B",
"0 c #44384A",
"q c #33273A",
"w c #322639",
"e c #302438",
"r c #2C1937",
"t c #2D1836",
"y c #2B1835",
"u c #5B4B6E",
"i c #2E2235",
"p c #413546",
/* pixels */
"                                ",
"...... XXXXXXX ...... ...... ...",
"XXXXXX XXXXXXX XXXXXX XXXXXX XXX",
"XXXXXX XXXXXXX oooooo XXXXXX ooo",
"                                ",
"XXXOOOOOOOOOOOOOOOOOOOOOOOOOOOOO",
"XXXOOOOOOOOOOOOOOOOOOOOOOOOOOOOO",
"oooOOOOOOOOOOOOOOOOOOOOOOOOOOOOO",
"  OOOOOOOOOOOOOOOOOOOOOOOOOOOOOO",
"..OOOOOOOOOOOOOOOOOOOOOOOOOOOOOO",
"XXOOOOOOOOOOOOOOOOOOOOOOOOOOOOOO",
"ooOOOOOOOOOOOOOOOOOOOOOOOOOOOOOO",
"   OOOOOOOOOOOOOOOOOOOOOOOOOOOOO",
"...OOOOOOOOOOOOOOOOOOOOOOOOOOOOO",
"++@OOOOOOOOOOOOOOOOOOOOOOOOOOOOO",
"###$OOOOOOOOOOOOOOOOOOOOOOOOOOOO",
"%%$$OOOOOOOOOOOOOOOOOOOOOOOOOOOO",
"&&**OOOOOOOOOOOOOOOOOOOOOOOOOOOO",
"&&**OOOOOOO=OOOOOOOOOOOOOOOOOOOO",
"&&**OOOOOO=-=OOOOOOOOOOOOOOOOOOO",
";;::OOOOO=---=OOOOOOOOOOOOOOOOOO",
">>OOOOOOOO=-=OOOOOOOOOOOOOOOOOOO",
",,OOOOOOOOO=OOOOOOOOOOOOOOOOOOOO",
"<<OOOOOOOOOOOOOOOOOOOOOOOOOOOOOO",
"112321OOOOOOOOOOOOOOOOOOOOOOOOOO",
"<<4567OOOOOOOOOOOOOOOOOOOOOOOOOO",
"889098OOOOOOOOOOOOOOOOOOOOOOOOOO",
"qqwewqOOOOOOOOOOOOOOOOOOOOOOOOOO",
"rrtytrrrrrrrrrrrrrrrrrrrrrrrrrrr",
"uuuiuuuuuuiuuuuuuiuuuuuuiuuuuuui",
"pppippppppippppppippppppippppppi",
"iiiiiiiiiiiiiiiiiiiiiiiiiiiiiiii"
};
